<svg xmlns="http://www.w3.org/2000/svg" viewBox="0 0 2028.38 3491.27"><g id="Layer_2" data-name="Layer 2"><g id="Layer_1-2" data-name="Layer 1"><polygon points="960 2871.26 960 2933.84 1014.19 2965.12 1068.38 2933.84 1068.38 2871.26 1014.19 2839.98 960 2871.26"/><polygon points="1080 2871.26 1080 2933.84 1134.19 2965.12 1188.38 2933.84 1188.38 2871.26 1134.19 2839.98 1080 2871.26"/><polygon points="720 2871.26 720 2933.84 774.19 2965.12 828.38 2933.84 828.38 2871.26 774.19 2839.98 720 2871.26"/><polygon points="840 2871.26 840 2933.84 894.19 2965.12 948.38 2933.84 948.38 2871.26 894.19 2839.98 840 2871.26"/><polygon points="1440 2871.26 1440 2933.84 1494.19 2965.12 1548.38 2933.84 1548.38 2871.26 1494.19 2839.98 1440 2871.26"/><polygon points="1560 2871.26 1560 2933.84 1614.19 2965.12 1668.38 2933.84 1668.38 2871.26 1614.19 2839.98 1560 2871.26"/><polygon points="1680 2871.26 1680 2933.84 1734.19 2965.12 1788.38 2933.84 1788.38 2871.26 1734.19 2839.98 1680 2871.26"/><polygon points="1800 2871.26 1800 2933.84 1854.19 2965.12 1908.38 2933.84 1908.38 2871.26 1854.19 2839.98 1800 2871.26"/><polygon points="1920 2871.26 1920 2933.84 1974.19 2965.12 2028.38 2933.84 2028.38 2871.26 1974.19 2839.98 1920 2871.26"/><polygon points="1200 2871.26 1200 2933.84 1254.19 2965.12 1308.38 2933.84 1308.38 2871.26 1254.19 2839.98 1200 2871.26"/><polygon points="1320 2871.26 1320 2933.84 1374.19 2965.12 1428.38 2933.84 1428.38 2871.26 1374.19 2839.98 1320 2871.26"/><polygon points="120 2871.26 120 2933.84 174.19 2965.12 228.38 2933.84 228.38 2871.26 174.19 2839.98 120 2871.26"/><polygon points="0 2871.26 0 2933.84 54.19 2965.12 108.38 2933.84 108.38 2871.26 54.19 2839.98 0 2871.26"/><polygon points="480 2871.26 480 2933.84 534.19 2965.12 588.38 2933.84 588.38 2871.26 534.19 2839.98 480 2871.26"/><polygon points="600 2871.26 600 2933.84 654.19 2965.12 708.38 2933.84 708.38 2871.26 654.19 2839.98 600 2871.26"/><polygon points="240 2871.26 240 2933.84 294.19 2965.12 348.38 2933.84 348.38 2871.26 294.19 2839.98 240 2871.26"/><polygon points="360 2871.26 360 2933.84 414.19 2965.12 468.38 2933.84 468.38 2871.26 414.19 2839.98 360 2871.26"/><polygon points="1019 2766.26 1019 2828.84 1073.19 2860.12 1127.38 2828.84 1127.38 2766.26 1073.19 2734.98 1019 2766.26"/><polygon points="1139 2766.26 1139 2828.84 1193.19 2860.12 1247.38 2828.84 1247.38 2766.26 1193.19 2734.98 1139 2766.26"/><polygon points="779 2766.26 779 2828.84 833.19 2860.12 887.38 2828.84 887.38 2766.26 833.19 2734.98 779 2766.26"/><polygon points="899 2766.26 899 2828.84 953.19 2860.12 1007.38 2828.84 1007.38 2766.26 953.19 2734.98 899 2766.26"/><polygon points="1499 2766.26 1499 2828.84 1553.19 2860.12 1607.38 2828.84 1607.38 2766.26 1553.19 2734.98 1499 2766.26"/><polygon points="1619 2766.26 1619 2828.84 1673.19 2860.12 1727.38 2828.84 1727.38 2766.26 1673.19 2734.98 1619 2766.26"/><polygon points="1739 2766.26 1739 2828.84 1793.19 2860.12 1847.38 2828.84 1847.38 2766.26 1793.19 2734.98 1739 2766.26"/><polygon points="1859 2766.26 1859 2828.84 1913.19 2860.12 1967.38 2828.84 1967.38 2766.26 1913.19 2734.98 1859 2766.26"/><polygon points="1259 2766.26 1259 2828.84 1313.19 2860.12 1367.38 2828.84 1367.38 2766.26 1313.19 2734.98 1259 2766.26"/><polygon points="1379 2766.26 1379 2828.84 1433.19 2860.12 1487.38 2828.84 1487.38 2766.26 1433.19 2734.98 1379 2766.26"/><polygon points="179 2766.26 179 2828.84 233.19 2860.12 287.38 2828.84 287.38 2766.26 233.19 2734.98 179 2766.26"/><polygon points="59 2766.26 59 2828.84 113.19 2860.12 167.38 2828.84 167.38 2766.26 113.19 2734.98 59 2766.26"/><polygon points="539 2766.26 539 2828.84 593.19 2860.12 647.38 2828.84 647.38 2766.26 593.19 2734.98 539 2766.26"/><polygon points="659 2766.26 659 2828.84 713.19 2860.12 767.38 2828.84 767.38 2766.26 713.19 2734.98 659 2766.26"/><polygon points="299 2766.26 299 2828.84 353.19 2860.12 407.38 2828.84 407.38 2766.26 353.19 2734.98 299 2766.26"/><polygon points="419 2766.26 419 2828.84 473.19 2860.12 527.38 2828.84 527.38 2766.26 473.19 2734.98 419 2766.26"/><polygon points="960 2660.88 960 2723.45 1014.19 2754.74 1068.38 2723.45 1068.38 2660.88 1014.19 2629.6 960 2660.88"/><polygon points="1080 2660.88 1080 2723.45 1134.19 2754.74 1188.38 2723.45 1188.38 2660.88 1134.19 2629.6 1080 2660.88"/><polygon points="720 2660.88 720 2723.45 774.19 2754.74 828.38 2723.45 828.38 2660.88 774.19 2629.6 720 2660.88"/><polygon points="840 2660.88 840 2723.45 894.19 2754.74 948.38 2723.45 948.38 2660.88 894.19 2629.6 840 2660.88"/><polygon points="1440 2660.88 1440 2723.45 1494.19 2754.74 1548.38 2723.45 1548.38 2660.88 1494.19 2629.6 1440 2660.88"/><polygon points="1560 2660.88 1560 2723.45 1614.19 2754.74 1668.38 2723.45 1668.38 2660.88 1614.19 2629.6 1560 2660.88"/><polygon points="1680 2660.88 1680 2723.45 1734.19 2754.74 1788.38 2723.45 1788.38 2660.88 1734.19 2629.6 1680 2660.88"/><polygon points="1800 2660.88 1800 2723.45 1854.19 2754.74 1908.38 2723.45 1908.38 2660.88 1854.19 2629.6 1800 2660.88"/><polygon points="1920 2660.88 1920 2723.45 1974.19 2754.74 2028.38 2723.45 2028.38 2660.88 1974.19 2629.6 1920 2660.88"/><polygon points="1200 2660.88 1200 2723.45 1254.19 2754.74 1308.38 2723.45 1308.38 2660.88 1254.19 2629.6 1200 2660.88"/><polygon points="1320 2660.88 1320 2723.45 1374.19 2754.74 1428.38 2723.45 1428.38 2660.88 1374.19 2629.6 1320 2660.88"/><polygon points="120 2660.88 120 2723.45 174.19 2754.74 228.38 2723.45 228.38 2660.88 174.19 2629.6 120 2660.88"/><polygon points="0 2660.88 0 2723.45 54.19 2754.74 108.38 2723.45 108.38 2660.88 54.19 2629.6 0 2660.88"/><polygon points="480 2660.88 480 2723.45 534.19 2754.74 588.38 2723.45 588.38 2660.88 534.19 2629.6 480 2660.88"/><polygon points="600 2660.88 600 2723.45 654.19 2754.74 708.38 2723.45 708.38 2660.88 654.19 2629.6 600 2660.88"/><polygon points="240 2660.88 240 2723.45 294.19 2754.74 348.38 2723.45 348.38 2660.88 294.19 2629.6 240 2660.88"/><polygon points="360 2660.88 360 2723.45 414.19 2754.74 468.38 2723.45 468.38 2660.88 414.19 2629.6 360 2660.88"/><polygon points="1019 2555.88 1019 2618.45 1073.19 2649.74 1127.38 2618.45 1127.38 2555.88 1073.19 2524.6 1019 2555.88"/><polygon points="1139 2555.88 1139 2618.45 1193.19 2649.74 1247.38 2618.45 1247.38 2555.88 1193.19 2524.6 1139 2555.88"/><polygon points="779 2555.88 779 2618.45 833.19 2649.74 887.38 2618.45 887.38 2555.88 833.19 2524.6 779 2555.88"/><polygon points="899 2555.88 899 2618.45 953.19 2649.74 1007.38 2618.45 1007.38 2555.88 953.19 2524.6 899 2555.88"/><polygon points="1499 2555.88 1499 2618.45 1553.19 2649.74 1607.38 2618.45 1607.38 2555.88 1553.19 2524.6 1499 2555.88"/><polygon points="1619 2555.88 1619 2618.45 1673.19 2649.74 1727.38 2618.45 1727.38 2555.88 1673.19 2524.6 1619 2555.88"/><polygon points="1739 2555.88 1739 2618.45 1793.19 2649.74 1847.38 2618.45 1847.38 2555.88 1793.19 2524.6 1739 2555.88"/><polygon points="1859 2555.88 1859 2618.45 1913.19 2649.74 1967.38 2618.45 1967.38 2555.88 1913.19 2524.6 1859 2555.88"/><polygon points="1259 2555.88 1259 2618.45 1313.19 2649.74 1367.38 2618.45 1367.38 2555.88 1313.19 2524.6 1259 2555.88"/><polygon points="1379 2555.88 1379 2618.45 1433.19 2649.74 1487.38 2618.45 1487.38 2555.88 1433.19 2524.6 1379 2555.88"/><polygon points="179 2555.88 179 2618.45 233.19 2649.74 287.38 2618.45 287.38 2555.88 233.19 2524.6 179 2555.88"/><polygon points="59 2555.88 59 2618.45 113.19 2649.74 167.38 2618.45 167.38 2555.88 113.19 2524.6 59 2555.88"/><polygon points="539 2555.88 539 2618.45 593.19 2649.74 647.38 2618.45 647.38 2555.88 593.19 2524.6 539 2555.88"/><polygon points="659 2555.88 659 2618.45 713.19 2649.74 767.38 2618.45 767.38 2555.88 713.19 2524.6 659 2555.88"/><polygon points="299 2555.88 299 2618.45 353.19 2649.74 407.38 2618.45 407.38 2555.88 353.19 2524.6 299 2555.88"/><polygon points="419 2555.88 419 2618.45 473.19 2649.74 527.38 2618.45 527.38 2555.88 473.19 2524.6 419 2555.88"/><polygon points="960 2450.5 960 2513.07 1014.19 2544.36 1068.38 2513.07 1068.38 2450.5 1014.19 2419.21 960 2450.5"/><polygon points="1080 2450.5 1080 2513.07 1134.19 2544.36 1188.38 2513.07 1188.38 2450.5 1134.19 2419.21 1080 2450.5"/><polygon points="720 2450.5 720 2513.07 774.19 2544.36 828.38 2513.07 828.38 2450.5 774.19 2419.21 720 2450.5"/><polygon points="840 2450.5 840 2513.07 894.19 2544.36 948.38 2513.07 948.38 2450.5 894.19 2419.21 840 2450.5"/><polygon points="1440 2450.5 1440 2513.07 1494.19 2544.36 1548.38 2513.07 1548.38 2450.5 1494.19 2419.21 1440 2450.5"/><polygon points="1560 2450.5 1560 2513.07 1614.19 2544.36 1668.38 2513.07 1668.38 2450.5 1614.19 2419.21 1560 2450.5"/><polygon points="1680 2450.5 1680 2513.07 1734.19 2544.36 1788.38 2513.07 1788.38 2450.5 1734.19 2419.21 1680 2450.5"/><polygon points="1800 2450.5 1800 2513.07 1854.19 2544.36 1908.38 2513.07 1908.38 2450.5 1854.19 2419.21 1800 2450.5"/><polygon points="1920 2450.5 1920 2513.07 1974.19 2544.36 2028.38 2513.07 2028.38 2450.5 1974.19 2419.21 1920 2450.5"/><polygon points="1200 2450.5 1200 2513.07 1254.19 2544.36 1308.38 2513.07 1308.38 2450.5 1254.19 2419.21 1200 2450.5"/><polygon points="1320 2450.5 1320 2513.07 1374.19 2544.36 1428.38 2513.07 1428.38 2450.5 1374.19 2419.21 1320 2450.5"/><polygon points="120 2450.5 120 2513.07 174.19 2544.36 228.38 2513.07 228.38 2450.5 174.19 2419.21 120 2450.5"/><polygon points="0 2450.5 0 2513.07 54.19 2544.36 108.38 2513.07 108.38 2450.5 54.19 2419.21 0 2450.5"/><polygon points="480 2450.5 480 2513.07 534.19 2544.36 588.38 2513.07 588.38 2450.5 534.19 2419.21 480 2450.5"/><polygon points="600 2450.5 600 2513.07 654.19 2544.36 708.38 2513.07 708.38 2450.5 654.19 2419.21 600 2450.5"/><polygon points="240 2450.5 240 2513.07 294.19 2544.36 348.38 2513.07 348.38 2450.5 294.19 2419.21 240 2450.5"/><polygon points="360 2450.5 360 2513.07 414.19 2544.36 468.38 2513.07 468.38 2450.5 414.19 2419.21 360 2450.5"/><polygon points="1019 2345.5 1019 2408.07 1073.19 2439.36 1127.38 2408.07 1127.38 2345.5 1073.19 2314.21 1019 2345.5"/><polygon points="1139 2345.5 1139 2408.07 1193.19 2439.36 1247.38 2408.07 1247.38 2345.5 1193.19 2314.21 1139 2345.5"/><polygon points="779 2345.5 779 2408.07 833.19 2439.36 887.38 2408.07 887.38 2345.5 833.19 2314.21 779 2345.5"/><polygon points="899 2345.5 899 2408.07 953.19 2439.36 1007.38 2408.07 1007.38 2345.5 953.19 2314.21 899 2345.5"/><polygon points="1499 2345.5 1499 2408.07 1553.19 2439.36 1607.38 2408.07 1607.38 2345.5 1553.19 2314.21 1499 2345.5"/><polygon points="1619 2345.5 1619 2408.07 1673.19 2439.36 1727.38 2408.07 1727.38 2345.5 1673.19 2314.21 1619 2345.5"/><polygon points="1739 2345.5 1739 2408.07 1793.19 2439.36 1847.38 2408.07 1847.38 2345.5 1793.19 2314.21 1739 2345.5"/><polygon points="1859 2345.5 1859 2408.07 1913.19 2439.36 1967.38 2408.07 1967.38 2345.5 1913.19 2314.21 1859 2345.5"/><polygon points="1259 2345.5 1259 2408.07 1313.19 2439.36 1367.38 2408.07 1367.38 2345.5 1313.19 2314.21 1259 2345.5"/><polygon points="1379 2345.5 1379 2408.07 1433.19 2439.36 1487.38 2408.07 1487.38 2345.5 1433.19 2314.21 1379 2345.5"/><polygon points="179 2345.5 179 2408.07 233.19 2439.36 287.38 2408.07 287.38 2345.5 233.19 2314.21 179 2345.5"/><polygon points="59 2345.5 59 2408.07 113.19 2439.36 167.38 2408.07 167.38 2345.5 113.19 2314.21 59 2345.5"/><polygon points="539 2345.5 539 2408.07 593.19 2439.36 647.38 2408.07 647.38 2345.5 593.19 2314.21 539 2345.5"/><polygon points="659 2345.5 659 2408.07 713.19 2439.36 767.38 2408.07 767.38 2345.5 713.19 2314.21 659 2345.5"/><polygon points="299 2345.5 299 2408.07 353.19 2439.36 407.38 2408.07 407.38 2345.5 353.19 2314.21 299 2345.5"/><polygon points="419 2345.5 419 2408.07 473.19 2439.36 527.38 2408.07 527.38 2345.5 473.19 2314.21 419 2345.5"/><polygon points="1019 2976.65 1019 3039.22 1073.19 3070.51 1127.38 3039.22 1127.38 2976.65 1073.19 2945.36 1019 2976.65"/><polygon points="1139 2976.65 1139 3039.22 1193.19 3070.51 1247.38 3039.22 1247.38 2976.65 1193.19 2945.36 1139 2976.65"/><polygon points="779 2976.65 779 3039.22 833.19 3070.51 887.38 3039.22 887.38 2976.65 833.19 2945.36 779 2976.65"/><polygon points="899 2976.65 899 3039.22 953.19 3070.51 1007.38 3039.22 1007.38 2976.65 953.19 2945.36 899 2976.65"/><polygon points="1499 2976.65 1499 3039.22 1553.19 3070.51 1607.38 3039.22 1607.38 2976.65 1553.19 2945.36 1499 2976.65"/><polygon points="1619 2976.65 1619 3039.22 1673.19 3070.51 1727.38 3039.22 1727.38 2976.65 1673.19 2945.36 1619 2976.65"/><polygon points="1739 2976.65 1739 3039.22 1793.19 3070.51 1847.38 3039.22 1847.38 2976.65 1793.19 2945.36 1739 2976.65"/><polygon points="1859 2976.65 1859 3039.22 1913.19 3070.51 1967.38 3039.22 1967.38 2976.65 1913.19 2945.36 1859 2976.65"/><polygon points="1259 2976.65 1259 3039.22 1313.19 3070.51 1367.38 3039.22 1367.38 2976.65 1313.19 2945.36 1259 2976.65"/><polygon points="1379 2976.65 1379 3039.22 1433.19 3070.51 1487.38 3039.22 1487.38 2976.65 1433.19 2945.36 1379 2976.65"/><polygon points="179 2976.65 179 3039.22 233.19 3070.51 287.38 3039.22 287.38 2976.65 233.19 2945.36 179 2976.65"/><polygon points="59 2976.65 59 3039.22 113.19 3070.51 167.38 3039.22 167.38 2976.65 113.19 2945.36 59 2976.65"/><polygon points="539 2976.65 539 3039.22 593.19 3070.51 647.38 3039.22 647.38 2976.65 593.19 2945.36 539 2976.65"/><polygon points="659 2976.65 659 3039.22 713.19 3070.51 767.38 3039.22 767.38 2976.65 713.19 2945.36 659 2976.65"/><polygon points="299 2976.65 299 3039.22 353.19 3070.51 407.38 3039.22 407.38 2976.65 353.19 2945.36 299 2976.65"/><polygon points="419 2976.65 419 3039.22 473.19 3070.51 527.38 3039.22 527.38 2976.65 473.19 2945.36 419 2976.65"/><polygon points="960 3292.03 960 3354.6 1014.19 3385.89 1068.38 3354.6 1068.38 3292.03 1014.19 3260.74 960 3292.03"/><polygon points="1080 3292.03 1080 3354.6 1134.19 3385.89 1188.38 3354.6 1188.38 3292.03 1134.19 3260.74 1080 3292.03"/><polygon points="720 3292.03 720 3354.6 774.19 3385.89 828.38 3354.6 828.38 3292.03 774.19 3260.74 720 3292.03"/><polygon points="840 3292.03 840 3354.6 894.19 3385.89 948.38 3354.6 948.38 3292.03 894.19 3260.74 840 3292.03"/><polygon points="1440 3292.03 1440 3354.6 1494.19 3385.89 1548.38 3354.6 1548.38 3292.03 1494.19 3260.74 1440 3292.03"/><polygon points="1560 3292.03 1560 3354.6 1614.19 3385.89 1668.38 3354.6 1668.38 3292.03 1614.19 3260.74 1560 3292.03"/><polygon points="1680 3292.03 1680 3354.6 1734.19 3385.89 1788.38 3354.6 1788.38 3292.03 1734.19 3260.74 1680 3292.03"/><polygon points="1800 3292.03 1800 3354.6 1854.19 3385.89 1908.38 3354.6 1908.38 3292.03 1854.19 3260.74 1800 3292.03"/><polygon points="1920 3292.03 1920 3354.6 1974.19 3385.89 2028.38 3354.6 2028.38 3292.03 1974.19 3260.74 1920 3292.03"/><polygon points="1200 3292.03 1200 3354.6 1254.19 3385.89 1308.38 3354.6 1308.38 3292.03 1254.19 3260.74 1200 3292.03"/><polygon points="1320 3292.03 1320 3354.6 1374.19 3385.89 1428.38 3354.6 1428.38 3292.03 1374.19 3260.74 1320 3292.03"/><polygon points="120 3292.03 120 3354.6 174.19 3385.89 228.38 3354.6 228.38 3292.03 174.19 3260.74 120 3292.03"/><polygon points="0 3292.03 0 3354.6 54.19 3385.89 108.38 3354.6 108.38 3292.03 54.19 3260.74 0 3292.03"/><polygon points="480 3292.03 480 3354.6 534.19 3385.89 588.38 3354.6 588.38 3292.03 534.19 3260.74 480 3292.03"/><polygon points="600 3292.03 600 3354.6 654.19 3385.89 708.38 3354.6 708.38 3292.03 654.19 3260.74 600 3292.03"/><polygon points="240 3292.03 240 3354.6 294.19 3385.89 348.38 3354.6 348.38 3292.03 294.19 3260.74 240 3292.03"/><polygon points="360 3292.03 360 3354.6 414.19 3385.89 468.38 3354.6 468.38 3292.03 414.19 3260.74 360 3292.03"/><polygon points="1019 3187.03 1019 3249.6 1073.19 3280.89 1127.38 3249.6 1127.38 3187.03 1073.19 3155.74 1019 3187.03"/><polygon points="1139 3187.03 1139 3249.6 1193.19 3280.89 1247.38 3249.6 1247.38 3187.03 1193.19 3155.74 1139 3187.03"/><polygon points="779 3187.03 779 3249.6 833.19 3280.89 887.38 3249.6 887.38 3187.03 833.19 3155.74 779 3187.03"/><polygon points="899 3187.03 899 3249.6 953.19 3280.89 1007.38 3249.6 1007.38 3187.03 953.19 3155.74 899 3187.03"/><polygon points="1499 3187.03 1499 3249.6 1553.19 3280.89 1607.38 3249.6 1607.38 3187.03 1553.19 3155.74 1499 3187.03"/><polygon points="1619 3187.03 1619 3249.6 1673.19 3280.89 1727.38 3249.6 1727.38 3187.03 1673.19 3155.74 1619 3187.03"/><polygon points="1739 3187.03 1739 3249.6 1793.19 3280.89 1847.38 3249.6 1847.38 3187.03 1793.19 3155.74 1739 3187.03"/><polygon points="1859 3187.03 1859 3249.6 1913.19 3280.89 1967.38 3249.6 1967.38 3187.03 1913.19 3155.74 1859 3187.03"/><polygon points="1259 3187.03 1259 3249.6 1313.19 3280.89 1367.38 3249.6 1367.38 3187.03 1313.19 3155.74 1259 3187.03"/><polygon points="1379 3187.03 1379 3249.6 1433.19 3280.89 1487.38 3249.6 1487.38 3187.03 1433.19 3155.74 1379 3187.03"/><polygon points="179 3187.03 179 3249.6 233.19 3280.89 287.38 3249.6 287.38 3187.03 233.19 3155.74 179 3187.03"/><polygon points="59 3187.03 59 3249.6 113.19 3280.89 167.38 3249.6 167.38 3187.03 113.19 3155.74 59 3187.03"/><polygon points="539 3187.03 539 3249.6 593.19 3280.89 647.38 3249.6 647.38 3187.03 593.19 3155.74 539 3187.03"/><polygon points="659 3187.03 659 3249.6 713.19 3280.89 767.38 3249.6 767.38 3187.03 713.19 3155.74 659 3187.03"/><polygon points="299 3187.03 299 3249.6 353.19 3280.89 407.38 3249.6 407.38 3187.03 353.19 3155.74 299 3187.03"/><polygon points="419 3187.03 419 3249.6 473.19 3280.89 527.38 3249.6 527.38 3187.03 473.19 3155.74 419 3187.03"/><polygon points="960 3081.65 960 3144.22 1014.19 3175.51 1068.38 3144.22 1068.38 3081.65 1014.19 3050.36 960 3081.65"/><polygon points="1080 3081.65 1080 3144.22 1134.19 3175.51 1188.38 3144.22 1188.38 3081.65 1134.19 3050.36 1080 3081.65"/><polygon points="720 3081.65 720 3144.22 774.19 3175.51 828.38 3144.22 828.38 3081.65 774.19 3050.36 720 3081.65"/><polygon points="840 3081.65 840 3144.22 894.19 3175.51 948.38 3144.22 948.38 3081.65 894.19 3050.36 840 3081.65"/><polygon points="1440 3081.65 1440 3144.22 1494.19 3175.51 1548.38 3144.22 1548.38 3081.65 1494.19 3050.36 1440 3081.65"/><polygon points="1560 3081.65 1560 3144.22 1614.19 3175.51 1668.38 3144.22 1668.38 3081.65 1614.19 3050.36 1560 3081.65"/><polygon points="1680 3081.65 1680 3144.22 1734.19 3175.51 1788.38 3144.22 1788.38 3081.65 1734.19 3050.36 1680 3081.65"/><polygon points="1800 3081.65 1800 3144.22 1854.19 3175.51 1908.38 3144.22 1908.38 3081.65 1854.19 3050.36 1800 3081.65"/><polygon points="1920 3081.65 1920 3144.22 1974.19 3175.51 2028.38 3144.22 2028.38 3081.65 1974.19 3050.36 1920 3081.65"/><polygon points="1200 3081.65 1200 3144.22 1254.19 3175.51 1308.38 3144.22 1308.38 3081.65 1254.19 3050.36 1200 3081.65"/><polygon points="1320 3081.65 1320 3144.22 1374.19 3175.51 1428.38 3144.22 1428.38 3081.65 1374.19 3050.36 1320 3081.65"/><polygon points="120 3081.65 120 3144.22 174.19 3175.51 228.38 3144.22 228.38 3081.65 174.19 3050.36 120 3081.65"/><polygon points="0 3081.65 0 3144.22 54.19 3175.51 108.38 3144.22 108.38 3081.65 54.19 3050.36 0 3081.65"/><polygon points="480 3081.65 480 3144.22 534.19 3175.51 588.38 3144.22 588.38 3081.65 534.19 3050.36 480 3081.65"/><polygon points="600 3081.65 600 3144.22 654.19 3175.51 708.38 3144.22 708.38 3081.65 654.19 3050.36 600 3081.65"/><polygon points="240 3081.65 240 3144.22 294.19 3175.51 348.38 3144.22 348.38 3081.65 294.19 3050.36 240 3081.65"/><polygon points="360 3081.65 360 3144.22 414.19 3175.51 468.38 3144.22 468.38 3081.65 414.19 3050.36 360 3081.65"/><polygon points="960 1819.35 960 1881.92 1014.19 1913.21 1068.38 1881.92 1068.38 1819.35 1014.19 1788.06 960 1819.35"/><polygon points="1080 1819.35 1080 1881.92 1134.19 1913.21 1188.38 1881.92 1188.38 1819.35 1134.19 1788.06 1080 1819.35"/><polygon points="720 1819.35 720 1881.92 774.19 1913.21 828.38 1881.92 828.38 1819.35 774.19 1788.06 720 1819.35"/><polygon points="840 1819.35 840 1881.92 894.19 1913.21 948.38 1881.92 948.38 1819.35 894.19 1788.06 840 1819.35"/><polygon points="1440 1819.35 1440 1881.92 1494.19 1913.21 1548.38 1881.92 1548.38 1819.35 1494.19 1788.06 1440 1819.35"/><polygon points="1560 1819.35 1560 1881.92 1614.19 1913.21 1668.38 1881.92 1668.38 1819.35 1614.19 1788.06 1560 1819.35"/><polygon points="1680 1819.35 1680 1881.92 1734.19 1913.21 1788.38 1881.92 1788.38 1819.35 1734.19 1788.06 1680 1819.35"/><polygon points="1800 1819.35 1800 1881.92 1854.19 1913.21 1908.38 1881.92 1908.38 1819.35 1854.19 1788.06 1800 1819.35"/><polygon points="1920 1819.35 1920 1881.92 1974.19 1913.21 2028.38 1881.92 2028.38 1819.35 1974.19 1788.06 1920 1819.35"/><polygon points="1200 1819.35 1200 1881.92 1254.19 1913.21 1308.38 1881.92 1308.38 1819.35 1254.19 1788.06 1200 1819.35"/><polygon points="1320 1819.35 1320 1881.92 1374.19 1913.21 1428.38 1881.92 1428.38 1819.35 1374.19 1788.06 1320 1819.35"/><polygon points="120 1819.35 120 1881.92 174.19 1913.21 228.38 1881.92 228.38 1819.35 174.19 1788.06 120 1819.35"/><polygon points="0 1819.35 0 1881.92 54.19 1913.21 108.38 1881.92 108.38 1819.35 54.19 1788.06 0 1819.35"/><polygon points="480 1819.35 480 1881.92 534.19 1913.21 588.38 1881.92 588.38 1819.35 534.19 1788.06 480 1819.35"/><polygon points="600 1819.35 600 1881.92 654.19 1913.21 708.38 1881.92 708.38 1819.35 654.19 1788.06 600 1819.35"/><polygon points="240 1819.35 240 1881.92 294.19 1913.21 348.38 1881.92 348.38 1819.35 294.19 1788.06 240 1819.35"/><polygon points="360 1819.35 360 1881.92 414.19 1913.21 468.38 1881.92 468.38 1819.35 414.19 1788.06 360 1819.35"/><polygon points="1019 1714.35 1019 1776.92 1073.19 1808.21 1127.38 1776.92 1127.38 1714.35 1073.19 1683.06 1019 1714.35"/><polygon points="1139 1714.35 1139 1776.92 1193.19 1808.21 1247.38 1776.92 1247.38 1714.35 1193.19 1683.06 1139 1714.35"/><polygon points="779 1714.35 779 1776.92 833.19 1808.21 887.38 1776.92 887.38 1714.35 833.19 1683.06 779 1714.35"/><polygon points="899 1714.35 899 1776.92 953.19 1808.21 1007.38 1776.92 1007.38 1714.35 953.19 1683.06 899 1714.35"/><polygon points="1499 1714.35 1499 1776.92 1553.19 1808.21 1607.38 1776.92 1607.38 1714.35 1553.19 1683.06 1499 1714.35"/><polygon points="1619 1714.35 1619 1776.92 1673.19 1808.21 1727.38 1776.92 1727.38 1714.35 1673.19 1683.06 1619 1714.35"/><polygon points="1739 1714.35 1739 1776.92 1793.19 1808.21 1847.38 1776.92 1847.38 1714.35 1793.19 1683.06 1739 1714.35"/><polygon points="1859 1714.35 1859 1776.92 1913.19 1808.21 1967.38 1776.92 1967.38 1714.35 1913.19 1683.06 1859 1714.35"/><polygon points="1259 1714.35 1259 1776.92 1313.19 1808.21 1367.38 1776.92 1367.38 1714.35 1313.19 1683.06 1259 1714.35"/><polygon points="1379 1714.35 1379 1776.92 1433.19 1808.21 1487.38 1776.92 1487.38 1714.35 1433.19 1683.06 1379 1714.35"/><polygon points="179 1714.35 179 1776.92 233.19 1808.21 287.38 1776.92 287.38 1714.35 233.19 1683.06 179 1714.35"/><polygon points="59 1714.35 59 1776.92 113.19 1808.21 167.38 1776.92 167.38 1714.35 113.19 1683.06 59 1714.35"/><polygon points="539 1714.35 539 1776.92 593.19 1808.21 647.38 1776.92 647.38 1714.35 593.19 1683.06 539 1714.35"/><polygon points="659 1714.35 659 1776.92 713.19 1808.21 767.38 1776.92 767.38 1714.35 713.19 1683.06 659 1714.35"/><polygon points="299 1714.35 299 1776.92 353.19 1808.21 407.38 1776.92 407.38 1714.35 353.19 1683.06 299 1714.35"/><polygon points="419 1714.35 419 1776.92 473.19 1808.21 527.38 1776.92 527.38 1714.35 473.19 1683.06 419 1714.35"/><polygon points="960 1608.97 960 1671.54 1014.19 1702.83 1068.38 1671.54 1068.38 1608.97 1014.19 1577.68 960 1608.97"/><polygon points="1080 1608.97 1080 1671.54 1134.19 1702.83 1188.38 1671.54 1188.38 1608.97 1134.19 1577.68 1080 1608.97"/><polygon points="720 1608.97 720 1671.54 774.19 1702.83 828.38 1671.54 828.38 1608.97 774.19 1577.68 720 1608.97"/><polygon points="840 1608.97 840 1671.54 894.19 1702.83 948.38 1671.54 948.38 1608.97 894.19 1577.68 840 1608.97"/><polygon points="1440 1608.97 1440 1671.54 1494.19 1702.83 1548.38 1671.54 1548.38 1608.97 1494.19 1577.68 1440 1608.97"/><polygon points="1560 1608.97 1560 1671.54 1614.19 1702.83 1668.38 1671.54 1668.38 1608.97 1614.19 1577.68 1560 1608.97"/><polygon points="1680 1608.97 1680 1671.54 1734.19 1702.83 1788.38 1671.54 1788.38 1608.97 1734.19 1577.68 1680 1608.97"/><polygon points="1800 1608.97 1800 1671.54 1854.19 1702.83 1908.38 1671.54 1908.38 1608.97 1854.19 1577.68 1800 1608.97"/><polygon points="1920 1608.97 1920 1671.54 1974.19 1702.83 2028.38 1671.54 2028.38 1608.97 1974.19 1577.68 1920 1608.97"/><polygon points="1200 1608.97 1200 1671.54 1254.19 1702.83 1308.38 1671.54 1308.38 1608.97 1254.19 1577.68 1200 1608.97"/><polygon points="1320 1608.97 1320 1671.54 1374.19 1702.83 1428.38 1671.54 1428.38 1608.97 1374.19 1577.68 1320 1608.97"/><polygon points="120 1608.97 120 1671.54 174.19 1702.83 228.38 1671.54 228.38 1608.97 174.19 1577.68 120 1608.97"/><polygon points="0 1608.97 0 1671.54 54.19 1702.83 108.38 1671.54 108.38 1608.97 54.19 1577.68 0 1608.97"/><polygon points="480 1608.97 480 1671.54 534.19 1702.83 588.38 1671.54 588.38 1608.97 534.19 1577.68 480 1608.97"/><polygon points="600 1608.97 600 1671.54 654.19 1702.83 708.38 1671.54 708.38 1608.97 654.19 1577.68 600 1608.97"/><polygon points="240 1608.97 240 1671.54 294.19 1702.83 348.38 1671.54 348.38 1608.97 294.19 1577.68 240 1608.97"/><polygon points="360 1608.97 360 1671.54 414.19 1702.83 468.38 1671.54 468.38 1608.97 414.19 1577.68 360 1608.97"/><polygon points="1019 1503.97 1019 1566.54 1073.19 1597.83 1127.38 1566.54 1127.38 1503.97 1073.19 1472.68 1019 1503.97"/><polygon points="1139 1503.97 1139 1566.54 1193.19 1597.83 1247.38 1566.54 1247.38 1503.97 1193.19 1472.68 1139 1503.97"/><polygon points="779 1503.97 779 1566.54 833.19 1597.83 887.38 1566.54 887.38 1503.97 833.19 1472.68 779 1503.97"/><polygon points="899 1503.97 899 1566.54 953.19 1597.83 1007.38 1566.54 1007.38 1503.97 953.19 1472.68 899 1503.97"/><polygon points="1499 1503.97 1499 1566.54 1553.19 1597.83 1607.38 1566.54 1607.38 1503.97 1553.19 1472.68 1499 1503.97"/><polygon points="1619 1503.97 1619 1566.54 1673.19 1597.83 1727.38 1566.54 1727.38 1503.97 1673.19 1472.68 1619 1503.97"/><polygon points="1739 1503.97 1739 1566.54 1793.19 1597.83 1847.38 1566.54 1847.38 1503.97 1793.19 1472.68 1739 1503.97"/><polygon points="1859 1503.97 1859 1566.54 1913.19 1597.83 1967.38 1566.54 1967.38 1503.97 1913.19 1472.68 1859 1503.97"/><polygon points="1259 1503.97 1259 1566.54 1313.19 1597.83 1367.38 1566.54 1367.38 1503.97 1313.19 1472.68 1259 1503.97"/><polygon points="1379 1503.97 1379 1566.54 1433.19 1597.83 1487.38 1566.54 1487.38 1503.97 1433.19 1472.68 1379 1503.97"/><polygon points="179 1503.97 179 1566.54 233.19 1597.83 287.38 1566.54 287.38 1503.97 233.19 1472.68 179 1503.97"/><polygon points="59 1503.97 59 1566.54 113.19 1597.83 167.38 1566.54 167.38 1503.97 113.19 1472.68 59 1503.97"/><polygon points="539 1503.97 539 1566.54 593.19 1597.83 647.38 1566.54 647.38 1503.97 593.19 1472.68 539 1503.97"/><polygon points="659 1503.97 659 1566.54 713.19 1597.83 767.38 1566.54 767.38 1503.97 713.19 1472.68 659 1503.97"/><polygon points="299 1503.97 299 1566.54 353.19 1597.83 407.38 1566.54 407.38 1503.97 353.19 1472.68 299 1503.97"/><polygon points="419 1503.97 419 1566.54 473.19 1597.83 527.38 1566.54 527.38 1503.97 473.19 1472.68 419 1503.97"/><polygon points="960 1398.58 960 1461.16 1014.19 1492.44 1068.38 1461.16 1068.38 1398.58 1014.19 1367.3 960 1398.58"/><polygon points="1080 1398.58 1080 1461.16 1134.19 1492.44 1188.38 1461.16 1188.38 1398.58 1134.19 1367.3 1080 1398.58"/><polygon points="720 1398.58 720 1461.16 774.19 1492.44 828.38 1461.16 828.38 1398.58 774.19 1367.3 720 1398.58"/><polygon points="840 1398.58 840 1461.16 894.19 1492.44 948.38 1461.16 948.38 1398.58 894.19 1367.3 840 1398.58"/><polygon points="1440 1398.58 1440 1461.16 1494.19 1492.44 1548.38 1461.16 1548.38 1398.58 1494.19 1367.3 1440 1398.58"/><polygon points="1560 1398.58 1560 1461.16 1614.19 1492.44 1668.38 1461.16 1668.38 1398.58 1614.19 1367.3 1560 1398.58"/><polygon points="1680 1398.58 1680 1461.16 1734.19 1492.44 1788.38 1461.16 1788.38 1398.58 1734.19 1367.3 1680 1398.58"/><polygon points="1800 1398.58 1800 1461.16 1854.19 1492.44 1908.38 1461.16 1908.38 1398.58 1854.19 1367.3 1800 1398.58"/><polygon points="1920 1398.58 1920 1461.16 1974.19 1492.44 2028.38 1461.16 2028.38 1398.58 1974.19 1367.3 1920 1398.58"/><polygon points="1200 1398.58 1200 1461.16 1254.19 1492.44 1308.38 1461.16 1308.38 1398.58 1254.19 1367.3 1200 1398.58"/><polygon points="1320 1398.58 1320 1461.16 1374.19 1492.44 1428.38 1461.16 1428.38 1398.58 1374.19 1367.3 1320 1398.58"/><polygon points="120 1398.58 120 1461.16 174.19 1492.44 228.38 1461.16 228.38 1398.58 174.19 1367.3 120 1398.58"/><polygon points="0 1398.58 0 1461.16 54.19 1492.44 108.38 1461.16 108.38 1398.58 54.19 1367.3 0 1398.58"/><polygon points="480 1398.58 480 1461.16 534.19 1492.44 588.38 1461.16 588.38 1398.58 534.19 1367.3 480 1398.58"/><polygon points="600 1398.58 600 1461.16 654.19 1492.44 708.38 1461.16 708.38 1398.58 654.19 1367.3 600 1398.58"/><polygon points="240 1398.58 240 1461.16 294.19 1492.44 348.38 1461.16 348.38 1398.58 294.19 1367.3 240 1398.58"/><polygon points="360 1398.58 360 1461.16 414.19 1492.44 468.38 1461.16 468.38 1398.58 414.19 1367.3 360 1398.58"/><polygon points="1019 1293.58 1019 1356.16 1073.19 1387.44 1127.38 1356.16 1127.38 1293.58 1073.19 1262.3 1019 1293.58"/><polygon points="1139 1293.58 1139 1356.16 1193.19 1387.44 1247.38 1356.16 1247.38 1293.58 1193.19 1262.3 1139 1293.58"/><polygon points="779 1293.58 779 1356.16 833.19 1387.44 887.38 1356.16 887.38 1293.58 833.19 1262.3 779 1293.58"/><polygon points="899 1293.58 899 1356.16 953.19 1387.44 1007.38 1356.16 1007.38 1293.58 953.19 1262.3 899 1293.58"/><polygon points="1499 1293.58 1499 1356.16 1553.19 1387.44 1607.38 1356.16 1607.38 1293.58 1553.19 1262.3 1499 1293.58"/><polygon points="1619 1293.58 1619 1356.16 1673.19 1387.44 1727.38 1356.16 1727.38 1293.58 1673.19 1262.3 1619 1293.58"/><polygon points="1739 1293.58 1739 1356.16 1793.19 1387.44 1847.38 1356.16 1847.38 1293.58 1793.19 1262.3 1739 1293.58"/><polygon points="1859 1293.58 1859 1356.16 1913.19 1387.44 1967.38 1356.16 1967.38 1293.58 1913.19 1262.3 1859 1293.58"/><polygon points="1259 1293.58 1259 1356.16 1313.19 1387.44 1367.38 1356.16 1367.38 1293.58 1313.19 1262.3 1259 1293.58"/><polygon points="1379 1293.58 1379 1356.16 1433.19 1387.44 1487.38 1356.16 1487.38 1293.58 1433.19 1262.3 1379 1293.58"/><polygon points="179 1293.58 179 1356.16 233.19 1387.44 287.38 1356.16 287.38 1293.58 233.19 1262.3 179 1293.58"/><polygon points="59 1293.58 59 1356.16 113.19 1387.44 167.38 1356.16 167.38 1293.58 113.19 1262.3 59 1293.58"/><polygon points="539 1293.58 539 1356.16 593.19 1387.44 647.38 1356.16 647.38 1293.58 593.19 1262.3 539 1293.58"/><polygon points="659 1293.58 659 1356.16 713.19 1387.44 767.38 1356.16 767.38 1293.58 713.19 1262.3 659 1293.58"/><polygon points="299 1293.58 299 1356.16 353.19 1387.44 407.38 1356.16 407.38 1293.58 353.19 1262.3 299 1293.58"/><polygon points="419 1293.58 419 1356.16 473.19 1387.44 527.38 1356.16 527.38 1293.58 473.19 1262.3 419 1293.58"/><polygon points="1019 1924.73 1019 1987.31 1073.19 2018.59 1127.38 1987.31 1127.38 1924.73 1073.19 1893.45 1019 1924.73"/><polygon points="1139 1924.73 1139 1987.31 1193.19 2018.59 1247.38 1987.31 1247.38 1924.73 1193.19 1893.45 1139 1924.73"/><polygon points="779 1924.73 779 1987.31 833.19 2018.59 887.38 1987.31 887.38 1924.73 833.19 1893.45 779 1924.73"/><polygon points="899 1924.73 899 1987.31 953.19 2018.59 1007.38 1987.31 1007.38 1924.73 953.19 1893.45 899 1924.73"/><polygon points="1499 1924.73 1499 1987.31 1553.19 2018.59 1607.38 1987.31 1607.38 1924.73 1553.19 1893.45 1499 1924.73"/><polygon points="1619 1924.73 1619 1987.31 1673.19 2018.59 1727.38 1987.31 1727.38 1924.73 1673.19 1893.45 1619 1924.73"/><polygon points="1739 1924.73 1739 1987.31 1793.19 2018.59 1847.38 1987.31 1847.38 1924.73 1793.19 1893.45 1739 1924.73"/><polygon points="1859 1924.73 1859 1987.31 1913.19 2018.59 1967.38 1987.31 1967.38 1924.73 1913.19 1893.45 1859 1924.73"/><polygon points="1259 1924.73 1259 1987.31 1313.19 2018.59 1367.38 1987.31 1367.38 1924.73 1313.19 1893.45 1259 1924.73"/><polygon points="1379 1924.73 1379 1987.31 1433.19 2018.59 1487.38 1987.31 1487.38 1924.73 1433.19 1893.45 1379 1924.73"/><polygon points="179 1924.73 179 1987.31 233.19 2018.59 287.38 1987.31 287.38 1924.73 233.19 1893.45 179 1924.73"/><polygon points="59 1924.73 59 1987.31 113.19 2018.59 167.38 1987.31 167.38 1924.73 113.19 1893.45 59 1924.73"/><polygon points="539 1924.73 539 1987.31 593.19 2018.59 647.38 1987.31 647.38 1924.73 593.19 1893.45 539 1924.73"/><polygon points="659 1924.73 659 1987.31 713.19 2018.59 767.38 1987.31 767.38 1924.73 713.19 1893.45 659 1924.73"/><polygon points="299 1924.73 299 1987.31 353.19 2018.59 407.38 1987.31 407.38 1924.73 353.19 1893.45 299 1924.73"/><polygon points="419 1924.73 419 1987.31 473.19 2018.59 527.38 1987.31 527.38 1924.73 473.19 1893.45 419 1924.73"/><polygon points="960 2240.12 960 2302.69 1014.19 2333.97 1068.38 2302.69 1068.38 2240.12 1014.19 2208.83 960 2240.12"/><polygon points="1080 2240.12 1080 2302.69 1134.19 2333.97 1188.38 2302.69 1188.38 2240.12 1134.19 2208.83 1080 2240.12"/><polygon points="720 2240.12 720 2302.69 774.19 2333.97 828.38 2302.69 828.38 2240.12 774.19 2208.83 720 2240.12"/><polygon points="840 2240.12 840 2302.69 894.19 2333.97 948.38 2302.69 948.38 2240.12 894.19 2208.83 840 2240.12"/><polygon points="1440 2240.12 1440 2302.69 1494.19 2333.97 1548.38 2302.69 1548.38 2240.12 1494.19 2208.83 1440 2240.12"/><polygon points="1560 2240.12 1560 2302.69 1614.19 2333.97 1668.38 2302.69 1668.38 2240.12 1614.19 2208.83 1560 2240.12"/><polygon points="1680 2240.12 1680 2302.69 1734.19 2333.97 1788.38 2302.69 1788.38 2240.12 1734.19 2208.83 1680 2240.12"/><polygon points="1800 2240.12 1800 2302.69 1854.19 2333.97 1908.38 2302.69 1908.38 2240.12 1854.19 2208.83 1800 2240.12"/><polygon points="1920 2240.12 1920 2302.69 1974.19 2333.97 2028.38 2302.69 2028.38 2240.12 1974.19 2208.83 1920 2240.12"/><polygon points="1200 2240.12 1200 2302.69 1254.19 2333.97 1308.38 2302.69 1308.38 2240.12 1254.19 2208.83 1200 2240.12"/><polygon points="1320 2240.12 1320 2302.69 1374.19 2333.97 1428.38 2302.69 1428.38 2240.12 1374.19 2208.83 1320 2240.12"/><polygon points="120 2240.12 120 2302.69 174.19 2333.97 228.38 2302.69 228.38 2240.12 174.19 2208.83 120 2240.12"/><polygon points="0 2240.12 0 2302.69 54.19 2333.97 108.38 2302.69 108.38 2240.12 54.19 2208.83 0 2240.12"/><polygon points="480 2240.12 480 2302.69 534.19 2333.97 588.38 2302.69 588.38 2240.12 534.19 2208.83 480 2240.12"/><polygon points="600 2240.12 600 2302.69 654.19 2333.97 708.38 2302.69 708.38 2240.12 654.19 2208.83 600 2240.12"/><polygon points="240 2240.12 240 2302.69 294.19 2333.97 348.38 2302.69 348.38 2240.12 294.19 2208.83 240 2240.12"/><polygon points="360 2240.12 360 2302.69 414.19 2333.97 468.38 2302.69 468.38 2240.12 414.19 2208.83 360 2240.12"/><polygon points="1019 2135.12 1019 2197.69 1073.19 2228.97 1127.38 2197.69 1127.38 2135.12 1073.19 2103.83 1019 2135.12"/><polygon points="1139 2135.12 1139 2197.69 1193.19 2228.97 1247.38 2197.69 1247.38 2135.12 1193.19 2103.83 1139 2135.12"/><polygon points="779 2135.12 779 2197.69 833.19 2228.97 887.38 2197.69 887.38 2135.12 833.19 2103.83 779 2135.12"/><polygon points="899 2135.12 899 2197.69 953.19 2228.97 1007.38 2197.69 1007.38 2135.12 953.19 2103.83 899 2135.12"/><polygon points="1499 2135.12 1499 2197.69 1553.19 2228.97 1607.38 2197.69 1607.38 2135.12 1553.19 2103.83 1499 2135.12"/><polygon points="1619 2135.12 1619 2197.69 1673.19 2228.97 1727.38 2197.69 1727.38 2135.12 1673.19 2103.83 1619 2135.12"/><polygon points="1739 2135.12 1739 2197.69 1793.19 2228.97 1847.38 2197.69 1847.38 2135.12 1793.19 2103.83 1739 2135.12"/><polygon points="1859 2135.12 1859 2197.69 1913.19 2228.97 1967.38 2197.69 1967.38 2135.12 1913.19 2103.83 1859 2135.12"/><polygon points="1259 2135.12 1259 2197.69 1313.19 2228.97 1367.38 2197.69 1367.38 2135.12 1313.19 2103.83 1259 2135.12"/><polygon points="1379 2135.12 1379 2197.69 1433.19 2228.97 1487.38 2197.69 1487.38 2135.12 1433.19 2103.83 1379 2135.12"/><polygon points="179 2135.12 179 2197.69 233.19 2228.97 287.38 2197.69 287.38 2135.12 233.19 2103.83 179 2135.12"/><polygon points="59 2135.12 59 2197.69 113.19 2228.97 167.38 2197.69 167.38 2135.12 113.19 2103.83 59 2135.12"/><polygon points="539 2135.12 539 2197.69 593.19 2228.97 647.38 2197.69 647.38 2135.12 593.19 2103.83 539 2135.12"/><polygon points="659 2135.12 659 2197.69 713.19 2228.97 767.38 2197.69 767.38 2135.12 713.19 2103.83 659 2135.12"/><polygon points="299 2135.12 299 2197.69 353.19 2228.97 407.38 2197.69 407.38 2135.12 353.19 2103.83 299 2135.12"/><polygon points="419 2135.12 419 2197.69 473.19 2228.97 527.38 2197.69 527.38 2135.12 473.19 2103.83 419 2135.12"/><polygon points="960 2029.73 960 2092.3 1014.19 2123.59 1068.38 2092.3 1068.38 2029.73 1014.19 1998.45 960 2029.73"/><polygon points="1080 2029.73 1080 2092.3 1134.19 2123.59 1188.38 2092.3 1188.38 2029.73 1134.19 1998.45 1080 2029.73"/><polygon points="720 2029.73 720 2092.3 774.19 2123.59 828.38 2092.3 828.38 2029.73 774.19 1998.45 720 2029.73"/><polygon points="840 2029.73 840 2092.3 894.19 2123.59 948.38 2092.3 948.38 2029.73 894.19 1998.45 840 2029.73"/><polygon points="1440 2029.73 1440 2092.3 1494.19 2123.59 1548.38 2092.3 1548.38 2029.73 1494.19 1998.45 1440 2029.73"/><polygon points="1560 2029.73 1560 2092.3 1614.19 2123.59 1668.38 2092.3 1668.38 2029.73 1614.19 1998.45 1560 2029.73"/><polygon points="1680 2029.73 1680 2092.3 1734.19 2123.59 1788.38 2092.3 1788.38 2029.73 1734.19 1998.45 1680 2029.73"/><polygon points="1800 2029.73 1800 2092.3 1854.19 2123.59 1908.38 2092.3 1908.38 2029.73 1854.19 1998.45 1800 2029.73"/><polygon points="1920 2029.73 1920 2092.3 1974.19 2123.59 2028.38 2092.3 2028.38 2029.73 1974.19 1998.45 1920 2029.73"/><polygon points="1200 2029.73 1200 2092.3 1254.19 2123.59 1308.38 2092.3 1308.38 2029.73 1254.19 1998.45 1200 2029.73"/><polygon points="1320 2029.73 1320 2092.3 1374.19 2123.59 1428.38 2092.3 1428.38 2029.73 1374.19 1998.45 1320 2029.73"/><polygon points="120 2029.73 120 2092.3 174.19 2123.59 228.38 2092.3 228.38 2029.73 174.19 1998.45 120 2029.73"/><polygon points="0 2029.73 0 2092.3 54.19 2123.59 108.38 2092.3 108.38 2029.73 54.19 1998.45 0 2029.73"/><polygon points="480 2029.73 480 2092.3 534.19 2123.59 588.38 2092.3 588.38 2029.73 534.19 1998.45 480 2029.73"/><polygon points="600 2029.73 600 2092.3 654.19 2123.59 708.38 2092.3 708.38 2029.73 654.19 1998.45 600 2029.73"/><polygon points="240 2029.73 240 2092.3 294.19 2123.59 348.38 2092.3 348.38 2029.73 294.19 1998.45 240 2029.73"/><polygon points="360 2029.73 360 2092.3 414.19 2123.59 468.38 2092.3 468.38 2029.73 414.19 1998.45 360 2029.73"/><polygon points="960 1188.2 960 1250.77 1014.19 1282.06 1068.38 1250.77 1068.38 1188.2 1014.19 1156.91 960 1188.2"/><polygon points="1080 1188.2 1080 1250.77 1134.19 1282.06 1188.38 1250.77 1188.38 1188.2 1134.19 1156.91 1080 1188.2"/><polygon points="720 1188.2 720 1250.77 774.19 1282.06 828.38 1250.77 828.38 1188.2 774.19 1156.91 720 1188.2"/><polygon points="840 1188.2 840 1250.77 894.19 1282.06 948.38 1250.77 948.38 1188.2 894.19 1156.91 840 1188.2"/><polygon points="1440 1188.2 1440 1250.77 1494.19 1282.06 1548.38 1250.77 1548.38 1188.2 1494.19 1156.91 1440 1188.2"/><polygon points="1560 1188.2 1560 1250.77 1614.19 1282.06 1668.38 1250.77 1668.38 1188.2 1614.19 1156.91 1560 1188.2"/><polygon points="1680 1188.2 1680 1250.77 1734.19 1282.06 1788.38 1250.77 1788.38 1188.2 1734.19 1156.91 1680 1188.2"/><polygon points="1800 1188.2 1800 1250.77 1854.19 1282.06 1908.38 1250.77 1908.38 1188.2 1854.19 1156.91 1800 1188.2"/><polygon points="1920 1188.2 1920 1250.77 1974.19 1282.06 2028.38 1250.77 2028.38 1188.2 1974.19 1156.91 1920 1188.2"/><polygon points="1200 1188.2 1200 1250.77 1254.19 1282.06 1308.38 1250.77 1308.38 1188.2 1254.19 1156.91 1200 1188.2"/><polygon points="1320 1188.2 1320 1250.77 1374.19 1282.06 1428.38 1250.77 1428.38 1188.2 1374.19 1156.91 1320 1188.2"/><polygon points="120 1188.2 120 1250.77 174.19 1282.06 228.38 1250.77 228.38 1188.2 174.19 1156.91 120 1188.2"/><polygon points="0 1188.2 0 1250.77 54.19 1282.06 108.38 1250.77 108.38 1188.2 54.19 1156.91 0 1188.2"/><polygon points="480 1188.2 480 1250.77 534.19 1282.06 588.38 1250.77 588.38 1188.2 534.19 1156.91 480 1188.2"/><polygon points="600 1188.2 600 1250.77 654.19 1282.06 708.38 1250.77 708.38 1188.2 654.19 1156.91 600 1188.2"/><polygon points="240 1188.2 240 1250.77 294.19 1282.06 348.38 1250.77 348.38 1188.2 294.19 1156.91 240 1188.2"/><polygon points="360 1188.2 360 1250.77 414.19 1282.06 468.38 1250.77 468.38 1188.2 414.19 1156.91 360 1188.2"/><polygon points="1019 1083.2 1019 1145.77 1073.19 1177.06 1127.38 1145.77 1127.38 1083.2 1073.19 1051.91 1019 1083.2"/><polygon points="1139 1083.2 1139 1145.77 1193.19 1177.06 1247.38 1145.77 1247.38 1083.2 1193.19 1051.91 1139 1083.2"/><polygon points="779 1083.2 779 1145.77 833.19 1177.06 887.38 1145.77 887.38 1083.2 833.19 1051.91 779 1083.2"/><polygon points="899 1083.2 899 1145.77 953.19 1177.06 1007.38 1145.77 1007.38 1083.2 953.19 1051.91 899 1083.2"/><polygon points="1499 1083.2 1499 1145.77 1553.19 1177.06 1607.38 1145.77 1607.38 1083.2 1553.19 1051.91 1499 1083.2"/><polygon points="1619 1083.2 1619 1145.77 1673.19 1177.06 1727.38 1145.77 1727.38 1083.2 1673.19 1051.91 1619 1083.2"/><polygon points="1739 1083.2 1739 1145.77 1793.19 1177.06 1847.38 1145.77 1847.38 1083.2 1793.19 1051.91 1739 1083.2"/><polygon points="1859 1083.2 1859 1145.77 1913.19 1177.06 1967.38 1145.77 1967.38 1083.2 1913.19 1051.91 1859 1083.2"/><polygon points="1259 1083.2 1259 1145.77 1313.19 1177.06 1367.38 1145.77 1367.38 1083.2 1313.19 1051.91 1259 1083.2"/><polygon points="1379 1083.2 1379 1145.77 1433.19 1177.06 1487.38 1145.77 1487.38 1083.2 1433.19 1051.91 1379 1083.2"/><polygon points="179 1083.2 179 1145.77 233.19 1177.06 287.38 1145.77 287.38 1083.2 233.19 1051.91 179 1083.2"/><polygon points="59 1083.2 59 1145.77 113.19 1177.06 167.38 1145.77 167.38 1083.2 113.19 1051.91 59 1083.2"/><polygon points="539 1083.2 539 1145.77 593.19 1177.06 647.38 1145.77 647.38 1083.2 593.19 1051.91 539 1083.2"/><polygon points="659 1083.2 659 1145.77 713.19 1177.06 767.38 1145.77 767.38 1083.2 713.19 1051.91 659 1083.2"/><polygon points="299 1083.2 299 1145.77 353.19 1177.06 407.38 1145.77 407.38 1083.2 353.19 1051.91 299 1083.2"/><polygon points="419 1083.2 419 1145.77 473.19 1177.06 527.38 1145.77 527.38 1083.2 473.19 1051.91 419 1083.2"/><polygon points="960 557.05 960 619.62 1014.19 650.91 1068.38 619.62 1068.38 557.05 1014.19 525.77 960 557.05"/><polygon points="1080 557.05 1080 619.62 1134.19 650.91 1188.38 619.62 1188.38 557.05 1134.19 525.77 1080 557.05"/><polygon points="720 557.05 720 619.62 774.19 650.91 828.38 619.62 828.38 557.05 774.19 525.77 720 557.05"/><polygon points="840 557.05 840 619.62 894.19 650.91 948.38 619.62 948.38 557.05 894.19 525.77 840 557.05"/><polygon points="1440 557.05 1440 619.62 1494.19 650.91 1548.38 619.62 1548.38 557.05 1494.19 525.77 1440 557.05"/><polygon points="1560 557.05 1560 619.62 1614.19 650.91 1668.38 619.62 1668.38 557.05 1614.19 525.77 1560 557.05"/><polygon points="1680 557.05 1680 619.62 1734.19 650.91 1788.38 619.62 1788.38 557.05 1734.19 525.77 1680 557.05"/><polygon points="1800 557.05 1800 619.62 1854.19 650.91 1908.38 619.62 1908.38 557.05 1854.19 525.77 1800 557.05"/><polygon points="1920 557.05 1920 619.62 1974.19 650.91 2028.38 619.62 2028.38 557.05 1974.19 525.77 1920 557.05"/><polygon points="1200 557.05 1200 619.62 1254.19 650.91 1308.38 619.62 1308.38 557.05 1254.19 525.77 1200 557.05"/><polygon points="1320 557.05 1320 619.62 1374.19 650.91 1428.38 619.62 1428.38 557.05 1374.19 525.77 1320 557.05"/><polygon points="120 557.05 120 619.62 174.19 650.91 228.38 619.62 228.38 557.05 174.19 525.77 120 557.05"/><polygon points="0 557.05 0 619.62 54.19 650.91 108.38 619.62 108.38 557.05 54.19 525.77 0 557.05"/><polygon points="480 557.05 480 619.62 534.19 650.91 588.38 619.62 588.38 557.05 534.19 525.77 480 557.05"/><polygon points="600 557.05 600 619.62 654.19 650.91 708.38 619.62 708.38 557.05 654.19 525.77 600 557.05"/><polygon points="240 557.05 240 619.62 294.19 650.91 348.38 619.62 348.38 557.05 294.19 525.77 240 557.05"/><polygon points="360 557.05 360 619.62 414.19 650.91 468.38 619.62 468.38 557.05 414.19 525.77 360 557.05"/><polygon points="1019 452.05 1019 514.62 1073.19 545.91 1127.38 514.62 1127.38 452.05 1073.19 420.77 1019 452.05"/><polygon points="1139 452.05 1139 514.62 1193.19 545.91 1247.38 514.62 1247.38 452.05 1193.19 420.77 1139 452.05"/><polygon points="779 452.05 779 514.62 833.19 545.91 887.38 514.62 887.38 452.05 833.19 420.77 779 452.05"/><polygon points="899 452.05 899 514.62 953.19 545.91 1007.38 514.62 1007.38 452.05 953.19 420.77 899 452.05"/><polygon points="1499 452.05 1499 514.62 1553.19 545.91 1607.38 514.62 1607.38 452.05 1553.19 420.77 1499 452.05"/><polygon points="1619 452.05 1619 514.62 1673.19 545.91 1727.38 514.62 1727.38 452.05 1673.19 420.77 1619 452.05"/><polygon points="1739 452.05 1739 514.62 1793.19 545.91 1847.38 514.62 1847.38 452.05 1793.19 420.77 1739 452.05"/><polygon points="1859 452.05 1859 514.62 1913.19 545.91 1967.38 514.62 1967.38 452.05 1913.19 420.77 1859 452.05"/><polygon points="1259 452.05 1259 514.62 1313.19 545.91 1367.38 514.62 1367.38 452.05 1313.19 420.77 1259 452.05"/><polygon points="1379 452.05 1379 514.62 1433.19 545.91 1487.38 514.62 1487.38 452.05 1433.19 420.77 1379 452.05"/><polygon points="179 452.05 179 514.62 233.19 545.91 287.38 514.62 287.38 452.05 233.19 420.77 179 452.05"/><polygon points="59 452.05 59 514.62 113.19 545.91 167.38 514.62 167.38 452.05 113.19 420.77 59 452.05"/><polygon points="539 452.05 539 514.62 593.19 545.91 647.38 514.62 647.38 452.05 593.19 420.77 539 452.05"/><polygon points="659 452.05 659 514.62 713.19 545.91 767.38 514.62 767.38 452.05 713.19 420.77 659 452.05"/><polygon points="299 452.05 299 514.62 353.19 545.91 407.38 514.62 407.38 452.05 353.19 420.77 299 452.05"/><polygon points="419 452.05 419 514.62 473.19 545.91 527.38 514.62 527.38 452.05 473.19 420.77 419 452.05"/><polygon points="960 346.67 960 409.24 1014.19 440.53 1068.38 409.24 1068.38 346.67 1014.19 315.38 960 346.67"/><polygon points="1080 346.67 1080 409.24 1134.19 440.53 1188.38 409.24 1188.38 346.67 1134.19 315.38 1080 346.67"/><polygon points="720 346.67 720 409.24 774.19 440.53 828.38 409.24 828.38 346.67 774.19 315.38 720 346.67"/><polygon points="840 346.67 840 409.24 894.19 440.53 948.38 409.24 948.38 346.67 894.19 315.38 840 346.67"/><polygon points="1440 346.67 1440 409.24 1494.19 440.53 1548.38 409.24 1548.38 346.67 1494.19 315.38 1440 346.67"/><polygon points="1560 346.67 1560 409.24 1614.19 440.53 1668.38 409.24 1668.38 346.67 1614.19 315.38 1560 346.67"/><polygon points="1680 346.67 1680 409.24 1734.19 440.53 1788.38 409.24 1788.38 346.67 1734.19 315.38 1680 346.67"/><polygon points="1800 346.67 1800 409.24 1854.19 440.53 1908.38 409.24 1908.38 346.67 1854.19 315.38 1800 346.67"/><polygon points="1920 346.67 1920 409.24 1974.19 440.53 2028.38 409.24 2028.38 346.67 1974.19 315.38 1920 346.67"/><polygon points="1200 346.67 1200 409.24 1254.19 440.53 1308.38 409.24 1308.38 346.67 1254.19 315.38 1200 346.67"/><polygon points="1320 346.67 1320 409.24 1374.19 440.53 1428.38 409.24 1428.38 346.67 1374.19 315.38 1320 346.67"/><polygon points="120 346.67 120 409.24 174.19 440.53 228.38 409.24 228.38 346.67 174.19 315.38 120 346.67"/><polygon points="0 346.67 0 409.24 54.19 440.53 108.38 409.24 108.38 346.67 54.19 315.38 0 346.67"/><polygon points="480 346.67 480 409.24 534.19 440.53 588.38 409.24 588.38 346.67 534.19 315.38 480 346.67"/><polygon points="600 346.67 600 409.24 654.19 440.53 708.38 409.24 708.38 346.67 654.19 315.38 600 346.67"/><polygon points="240 346.67 240 409.24 294.19 440.53 348.38 409.24 348.38 346.67 294.19 315.38 240 346.67"/><polygon points="360 346.67 360 409.24 414.19 440.53 468.38 409.24 468.38 346.67 414.19 315.38 360 346.67"/><polygon points="1019 241.67 1019 304.24 1073.19 335.53 1127.38 304.24 1127.38 241.67 1073.19 210.38 1019 241.67"/><polygon points="1139 241.67 1139 304.24 1193.19 335.53 1247.38 304.24 1247.38 241.67 1193.19 210.38 1139 241.67"/><polygon points="779 241.67 779 304.24 833.19 335.53 887.38 304.24 887.38 241.67 833.19 210.38 779 241.67"/><polygon points="899 241.67 899 304.24 953.19 335.53 1007.38 304.24 1007.38 241.67 953.19 210.38 899 241.67"/><polygon points="1499 241.67 1499 304.24 1553.19 335.53 1607.38 304.24 1607.38 241.67 1553.19 210.38 1499 241.67"/><polygon points="1619 241.67 1619 304.24 1673.19 335.53 1727.38 304.24 1727.38 241.67 1673.19 210.38 1619 241.67"/><polygon points="1739 241.67 1739 304.24 1793.19 335.53 1847.38 304.24 1847.38 241.67 1793.19 210.38 1739 241.67"/><polygon points="1859 241.67 1859 304.24 1913.19 335.53 1967.38 304.24 1967.38 241.67 1913.19 210.38 1859 241.67"/><polygon points="1259 241.67 1259 304.24 1313.19 335.53 1367.38 304.24 1367.38 241.67 1313.19 210.38 1259 241.67"/><polygon points="1379 241.67 1379 304.24 1433.19 335.53 1487.38 304.24 1487.38 241.67 1433.19 210.38 1379 241.67"/><polygon points="179 241.67 179 304.24 233.19 335.53 287.38 304.24 287.38 241.67 233.19 210.38 179 241.67"/><polygon points="59 241.67 59 304.24 113.19 335.53 167.38 304.24 167.38 241.67 113.19 210.38 59 241.67"/><polygon points="539 241.67 539 304.24 593.19 335.53 647.38 304.24 647.38 241.67 593.19 210.38 539 241.67"/><polygon points="659 241.67 659 304.24 713.19 335.53 767.38 304.24 767.38 241.67 713.19 210.38 659 241.67"/><polygon points="299 241.67 299 304.24 353.19 335.53 407.38 304.24 407.38 241.67 353.19 210.38 299 241.67"/><polygon points="419 241.67 419 304.24 473.19 335.53 527.38 304.24 527.38 241.67 473.19 210.38 419 241.67"/><polygon points="960 136.29 960 198.86 1014.19 230.14 1068.38 198.86 1068.38 136.29 1014.19 105 960 136.29"/><polygon points="1080 136.29 1080 198.86 1134.19 230.14 1188.38 198.86 1188.38 136.29 1134.19 105 1080 136.29"/><polygon points="720 136.29 720 198.86 774.19 230.14 828.38 198.86 828.38 136.29 774.19 105 720 136.29"/><polygon points="840 136.29 840 198.86 894.19 230.14 948.38 198.86 948.38 136.29 894.19 105 840 136.29"/><polygon points="1440 136.29 1440 198.86 1494.19 230.14 1548.38 198.86 1548.38 136.29 1494.19 105 1440 136.29"/><polygon points="1560 136.29 1560 198.86 1614.19 230.14 1668.38 198.86 1668.38 136.29 1614.19 105 1560 136.29"/><polygon points="1680 136.29 1680 198.86 1734.19 230.14 1788.38 198.86 1788.38 136.29 1734.19 105 1680 136.29"/><polygon points="1800 136.29 1800 198.86 1854.19 230.14 1908.38 198.86 1908.38 136.29 1854.19 105 1800 136.29"/><polygon points="1920 136.29 1920 198.86 1974.19 230.14 2028.38 198.86 2028.38 136.29 1974.19 105 1920 136.29"/><polygon points="1200 136.29 1200 198.86 1254.19 230.14 1308.38 198.86 1308.38 136.29 1254.19 105 1200 136.29"/><polygon points="1320 136.29 1320 198.86 1374.19 230.14 1428.38 198.86 1428.38 136.29 1374.19 105 1320 136.29"/><polygon points="120 136.29 120 198.86 174.19 230.14 228.38 198.86 228.38 136.29 174.19 105 120 136.29"/><polygon points="0 136.29 0 198.86 54.19 230.14 108.38 198.86 108.38 136.29 54.19 105 0 136.29"/><polygon points="480 136.29 480 198.86 534.19 230.14 588.38 198.86 588.38 136.29 534.19 105 480 136.29"/><polygon points="600 136.29 600 198.86 654.19 230.14 708.38 198.86 708.38 136.29 654.19 105 600 136.29"/><polygon points="240 136.29 240 198.86 294.19 230.14 348.38 198.86 348.38 136.29 294.19 105 240 136.29"/><polygon points="360 136.29 360 198.86 414.19 230.14 468.38 198.86 468.38 136.29 414.19 105 360 136.29"/><polygon points="1019 31.29 1019 93.86 1073.19 125.14 1127.38 93.86 1127.38 31.29 1073.19 0 1019 31.29"/><polygon points="1139 31.29 1139 93.86 1193.19 125.14 1247.38 93.86 1247.38 31.29 1193.19 0 1139 31.29"/><polygon points="779 31.29 779 93.86 833.19 125.14 887.38 93.86 887.38 31.29 833.19 0 779 31.29"/><polygon points="899 31.29 899 93.86 953.19 125.14 1007.38 93.86 1007.38 31.29 953.19 0 899 31.29"/><polygon points="1499 31.29 1499 93.86 1553.19 125.14 1607.38 93.86 1607.38 31.29 1553.19 0 1499 31.29"/><polygon points="1619 31.29 1619 93.86 1673.19 125.14 1727.38 93.86 1727.38 31.29 1673.19 0 1619 31.29"/><polygon points="1739 31.29 1739 93.86 1793.19 125.14 1847.38 93.86 1847.38 31.29 1793.19 0 1739 31.29"/><polygon points="1859 31.29 1859 93.86 1913.19 125.14 1967.38 93.86 1967.38 31.29 1913.19 0 1859 31.29"/><polygon points="1259 31.29 1259 93.86 1313.19 125.14 1367.38 93.86 1367.38 31.29 1313.19 0 1259 31.29"/><polygon points="1379 31.29 1379 93.86 1433.19 125.14 1487.38 93.86 1487.38 31.29 1433.19 0 1379 31.29"/><polygon points="179 31.29 179 93.86 233.19 125.14 287.38 93.86 287.38 31.29 233.19 0 179 31.29"/><polygon points="59 31.29 59 93.86 113.19 125.14 167.38 93.86 167.38 31.29 113.19 0 59 31.29"/><polygon points="539 31.29 539 93.86 593.19 125.14 647.38 93.86 647.38 31.29 593.19 0 539 31.29"/><polygon points="659 31.29 659 93.86 713.19 125.14 767.38 93.86 767.38 31.29 713.19 0 659 31.29"/><polygon points="299 31.29 299 93.86 353.19 125.14 407.38 93.86 407.38 31.29 353.19 0 299 31.29"/><polygon points="419 31.29 419 93.86 473.19 125.14 527.38 93.86 527.38 31.29 473.19 0 419 31.29"/><polygon points="1019 662.43 1019 725.01 1073.19 756.29 1127.38 725.01 1127.38 662.43 1073.19 631.15 1019 662.43"/><polygon points="1139 662.43 1139 725.01 1193.19 756.29 1247.38 725.01 1247.38 662.43 1193.19 631.15 1139 662.43"/><polygon points="779 662.43 779 725.01 833.19 756.29 887.38 725.01 887.38 662.43 833.19 631.15 779 662.43"/><polygon points="899 662.43 899 725.01 953.19 756.29 1007.38 725.01 1007.38 662.43 953.19 631.15 899 662.43"/><polygon points="1499 662.43 1499 725.01 1553.19 756.29 1607.38 725.01 1607.38 662.43 1553.19 631.15 1499 662.43"/><polygon points="1619 662.43 1619 725.01 1673.19 756.29 1727.38 725.01 1727.38 662.43 1673.19 631.15 1619 662.43"/><polygon points="1739 662.43 1739 725.01 1793.19 756.29 1847.38 725.01 1847.38 662.43 1793.19 631.15 1739 662.43"/><polygon points="1859 662.43 1859 725.01 1913.19 756.29 1967.38 725.01 1967.38 662.43 1913.19 631.15 1859 662.43"/><polygon points="1259 662.43 1259 725.01 1313.19 756.29 1367.38 725.01 1367.38 662.43 1313.19 631.15 1259 662.43"/><polygon points="1379 662.43 1379 725.01 1433.19 756.29 1487.38 725.01 1487.38 662.43 1433.19 631.15 1379 662.43"/><polygon points="179 662.43 179 725.01 233.19 756.29 287.38 725.01 287.38 662.43 233.19 631.15 179 662.43"/><polygon points="59 662.43 59 725.01 113.19 756.29 167.38 725.01 167.38 662.43 113.19 631.15 59 662.43"/><polygon points="539 662.43 539 725.01 593.19 756.29 647.38 725.01 647.38 662.43 593.19 631.15 539 662.43"/><polygon points="659 662.43 659 725.01 713.19 756.29 767.38 725.01 767.38 662.43 713.19 631.15 659 662.43"/><polygon points="299 662.43 299 725.01 353.19 756.29 407.38 725.01 407.38 662.43 353.19 631.15 299 662.43"/><polygon points="419 662.43 419 725.01 473.19 756.29 527.38 725.01 527.38 662.43 473.19 631.15 419 662.43"/><polygon points="960 977.82 960 1040.39 1014.19 1071.68 1068.38 1040.39 1068.38 977.82 1014.19 946.53 960 977.82"/><polygon points="1080 977.82 1080 1040.39 1134.19 1071.68 1188.38 1040.39 1188.38 977.82 1134.19 946.53 1080 977.82"/><polygon points="720 977.82 720 1040.39 774.19 1071.68 828.38 1040.39 828.38 977.82 774.19 946.53 720 977.82"/><polygon points="840 977.82 840 1040.39 894.19 1071.68 948.38 1040.39 948.38 977.82 894.19 946.53 840 977.82"/><polygon points="1440 977.82 1440 1040.39 1494.19 1071.68 1548.38 1040.39 1548.38 977.82 1494.19 946.53 1440 977.82"/><polygon points="1560 977.82 1560 1040.39 1614.19 1071.68 1668.38 1040.39 1668.38 977.82 1614.19 946.53 1560 977.82"/><polygon points="1680 977.82 1680 1040.39 1734.19 1071.68 1788.38 1040.39 1788.38 977.82 1734.19 946.53 1680 977.82"/><polygon points="1800 977.82 1800 1040.39 1854.19 1071.68 1908.38 1040.39 1908.38 977.82 1854.19 946.53 1800 977.82"/><polygon points="1920 977.82 1920 1040.39 1974.19 1071.68 2028.38 1040.39 2028.38 977.82 1974.19 946.53 1920 977.82"/><polygon points="1200 977.82 1200 1040.39 1254.19 1071.68 1308.38 1040.39 1308.38 977.82 1254.19 946.53 1200 977.82"/><polygon points="1320 977.82 1320 1040.39 1374.19 1071.68 1428.38 1040.39 1428.38 977.82 1374.19 946.53 1320 977.82"/><polygon points="120 977.82 120 1040.39 174.19 1071.68 228.38 1040.39 228.38 977.82 174.19 946.53 120 977.82"/><polygon points="0 977.82 0 1040.39 54.19 1071.68 108.38 1040.39 108.38 977.82 54.19 946.53 0 977.82"/><polygon points="480 977.82 480 1040.39 534.19 1071.68 588.38 1040.39 588.38 977.82 534.19 946.53 480 977.82"/><polygon points="600 977.82 600 1040.39 654.19 1071.68 708.38 1040.39 708.38 977.82 654.19 946.53 600 977.82"/><polygon points="240 977.82 240 1040.39 294.19 1071.68 348.38 1040.39 348.38 977.82 294.19 946.53 240 977.82"/><polygon points="360 977.82 360 1040.39 414.19 1071.68 468.38 1040.39 468.38 977.82 414.19 946.53 360 977.82"/><polygon points="1019 872.82 1019 935.39 1073.19 966.68 1127.38 935.39 1127.38 872.82 1073.19 841.53 1019 872.82"/><polygon points="1139 872.82 1139 935.39 1193.19 966.68 1247.38 935.39 1247.38 872.82 1193.19 841.53 1139 872.82"/><polygon points="779 872.82 779 935.39 833.19 966.68 887.38 935.39 887.38 872.82 833.19 841.53 779 872.82"/><polygon points="899 872.82 899 935.39 953.19 966.68 1007.38 935.39 1007.38 872.82 953.19 841.53 899 872.82"/><polygon points="1499 872.82 1499 935.39 1553.19 966.68 1607.38 935.39 1607.38 872.82 1553.19 841.53 1499 872.82"/><polygon points="1619 872.82 1619 935.39 1673.19 966.68 1727.38 935.39 1727.38 872.82 1673.19 841.53 1619 872.82"/><polygon points="1739 872.82 1739 935.39 1793.19 966.68 1847.38 935.39 1847.38 872.82 1793.19 841.53 1739 872.82"/><polygon points="1859 872.82 1859 935.39 1913.19 966.68 1967.38 935.39 1967.38 872.82 1913.19 841.53 1859 872.82"/><polygon points="1259 872.82 1259 935.39 1313.19 966.68 1367.38 935.39 1367.38 872.82 1313.19 841.53 1259 872.82"/><polygon points="1379 872.82 1379 935.39 1433.19 966.68 1487.38 935.39 1487.38 872.82 1433.19 841.53 1379 872.82"/><polygon points="179 872.82 179 935.39 233.19 966.68 287.38 935.39 287.38 872.82 233.19 841.53 179 872.82"/><polygon points="59 872.82 59 935.39 113.19 966.68 167.38 935.39 167.38 872.82 113.19 841.53 59 872.82"/><polygon points="539 872.82 539 935.39 593.19 966.68 647.38 935.39 647.38 872.82 593.19 841.53 539 872.82"/><polygon points="659 872.82 659 935.39 713.19 966.68 767.38 935.39 767.38 872.82 713.19 841.53 659 872.82"/><polygon points="299 872.82 299 935.39 353.19 966.68 407.38 935.39 407.38 872.82 353.19 841.53 299 872.82"/><polygon points="419 872.82 419 935.39 473.19 966.68 527.38 935.39 527.38 872.82 473.19 841.53 419 872.82"/><polygon points="960 767.43 960 830.01 1014.19 861.29 1068.38 830.01 1068.38 767.43 1014.19 736.15 960 767.43"/><polygon points="1080 767.43 1080 830.01 1134.19 861.29 1188.38 830.01 1188.38 767.43 1134.19 736.15 1080 767.43"/><polygon points="720 767.43 720 830.01 774.19 861.29 828.38 830.01 828.38 767.43 774.19 736.15 720 767.43"/><polygon points="840 767.43 840 830.01 894.19 861.29 948.38 830.01 948.38 767.43 894.19 736.15 840 767.43"/><polygon points="1440 767.43 1440 830.01 1494.19 861.29 1548.38 830.01 1548.38 767.43 1494.19 736.15 1440 767.43"/><polygon points="1560 767.43 1560 830.01 1614.19 861.29 1668.38 830.01 1668.38 767.43 1614.19 736.15 1560 767.43"/><polygon points="1680 767.43 1680 830.01 1734.19 861.29 1788.38 830.01 1788.38 767.43 1734.19 736.15 1680 767.43"/><polygon points="1800 767.43 1800 830.01 1854.19 861.29 1908.38 830.01 1908.38 767.43 1854.19 736.15 1800 767.43"/><polygon points="1920 767.43 1920 830.01 1974.19 861.29 2028.38 830.01 2028.38 767.43 1974.19 736.15 1920 767.43"/><polygon points="1200 767.43 1200 830.01 1254.19 861.29 1308.38 830.01 1308.38 767.43 1254.19 736.15 1200 767.43"/><polygon points="1320 767.43 1320 830.01 1374.19 861.29 1428.38 830.01 1428.38 767.43 1374.19 736.15 1320 767.43"/><polygon points="120 767.43 120 830.01 174.19 861.29 228.38 830.01 228.38 767.43 174.19 736.15 120 767.43"/><polygon points="0 767.43 0 830.01 54.19 861.29 108.38 830.01 108.38 767.43 54.19 736.15 0 767.43"/><polygon points="480 767.43 480 830.01 534.19 861.29 588.38 830.01 588.38 767.43 534.19 736.15 480 767.43"/><polygon points="600 767.43 600 830.01 654.19 861.29 708.38 830.01 708.38 767.43 654.19 736.15 600 767.43"/><polygon points="240 767.43 240 830.01 294.19 861.29 348.38 830.01 348.38 767.43 294.19 736.15 240 767.43"/><polygon points="360 767.43 360 830.01 414.19 861.29 468.38 830.01 468.38 767.43 414.19 736.15 360 767.43"/><polygon points="1019 3397.41 1019 3459.99 1073.19 3491.27 1127.38 3459.99 1127.38 3397.41 1073.19 3366.13 1019 3397.41"/><polygon points="1139 3397.41 1139 3459.99 1193.19 3491.27 1247.38 3459.99 1247.38 3397.41 1193.19 3366.13 1139 3397.41"/><polygon points="779 3397.41 779 3459.99 833.19 3491.27 887.38 3459.99 887.38 3397.41 833.19 3366.13 779 3397.41"/><polygon points="899 3397.41 899 3459.99 953.19 3491.27 1007.38 3459.99 1007.38 3397.41 953.19 3366.13 899 3397.41"/><polygon points="1499 3397.41 1499 3459.99 1553.19 3491.27 1607.38 3459.99 1607.38 3397.41 1553.19 3366.13 1499 3397.41"/><polygon points="1619 3397.41 1619 3459.99 1673.19 3491.27 1727.38 3459.99 1727.38 3397.41 1673.19 3366.13 1619 3397.41"/><polygon points="1739 3397.41 1739 3459.99 1793.19 3491.27 1847.38 3459.99 1847.38 3397.41 1793.19 3366.13 1739 3397.41"/><polygon points="1859 3397.41 1859 3459.99 1913.19 3491.27 1967.38 3459.99 1967.38 3397.41 1913.19 3366.13 1859 3397.41"/><polygon points="1259 3397.41 1259 3459.99 1313.19 3491.27 1367.38 3459.99 1367.38 3397.41 1313.19 3366.13 1259 3397.41"/><polygon points="1379 3397.41 1379 3459.99 1433.19 3491.27 1487.38 3459.99 1487.38 3397.41 1433.19 3366.13 1379 3397.41"/><polygon points="179 3397.41 179 3459.99 233.19 3491.27 287.38 3459.99 287.38 3397.41 233.19 3366.13 179 3397.41"/><polygon points="59 3397.41 59 3459.99 113.19 3491.27 167.38 3459.99 167.38 3397.41 113.19 3366.13 59 3397.41"/><polygon points="539 3397.41 539 3459.99 593.19 3491.27 647.38 3459.99 647.38 3397.41 593.19 3366.13 539 3397.41"/><polygon points="659 3397.41 659 3459.99 713.19 3491.27 767.38 3459.99 767.38 3397.41 713.19 3366.13 659 3397.41"/><polygon points="299 3397.41 299 3459.99 353.19 3491.27 407.38 3459.99 407.38 3397.41 353.19 3366.13 299 3397.41"/><polygon points="419 3397.41 419 3459.99 473.19 3491.27 527.38 3459.99 527.38 3397.41 473.19 3366.13 419 3397.41"/></g></g></svg>