<svg xmlns="http://www.w3.org/2000/svg" viewBox="0 0 2148.38 1387.44"><g id="Layer_2" data-name="Layer 2"><g id="Layer_1-2" data-name="Layer 1"><polygon points="1021 662.43 1021 725.01 1075.19 756.29 1129.38 725.01 1129.38 662.43 1075.19 631.15 1021 662.43"/><polygon points="1141 662.43 1141 725.01 1195.19 756.29 1249.38 725.01 1249.38 662.43 1195.19 631.15 1141 662.43"/><polygon points="781 662.43 781 725.01 835.19 756.29 889.38 725.01 889.38 662.43 835.19 631.15 781 662.43"/><polygon points="901 662.43 901 725.01 955.19 756.29 1009.38 725.01 1009.38 662.43 955.19 631.15 901 662.43"/><polygon points="1501 662.43 1501 725.01 1555.19 756.29 1609.38 725.01 1609.38 662.43 1555.19 631.15 1501 662.43"/><polygon points="1621 662.43 1621 725.01 1675.19 756.29 1729.38 725.01 1729.38 662.43 1675.19 631.15 1621 662.43"/><polygon points="1741 662.43 1741 725.01 1795.19 756.29 1849.38 725.01 1849.38 662.43 1795.19 631.15 1741 662.43"/><polygon points="1861 662.43 1861 725.01 1915.19 756.29 1969.38 725.01 1969.38 662.43 1915.19 631.15 1861 662.43"/><polygon points="1981 662.43 1981 725.01 2035.19 756.29 2089.38 725.01 2089.38 662.43 2035.19 631.15 1981 662.43"/><polygon points="1261 662.43 1261 725.01 1315.19 756.29 1369.38 725.01 1369.38 662.43 1315.19 631.15 1261 662.43"/><polygon points="1381 662.43 1381 725.01 1435.19 756.29 1489.38 725.01 1489.38 662.43 1435.19 631.15 1381 662.43"/><polygon points="181 662.43 181 725.01 235.19 756.29 289.38 725.01 289.38 662.43 235.19 631.15 181 662.43"/><polygon points="61 662.43 61 725.01 115.19 756.29 169.38 725.01 169.38 662.43 115.19 631.15 61 662.43"/><polygon points="541 662.43 541 725.01 595.19 756.29 649.38 725.01 649.38 662.43 595.19 631.15 541 662.43"/><polygon points="661 662.43 661 725.01 715.19 756.29 769.38 725.01 769.38 662.43 715.19 631.15 661 662.43"/><polygon points="301 662.43 301 725.01 355.19 756.29 409.38 725.01 409.38 662.43 355.19 631.15 301 662.43"/><polygon points="421 662.43 421 725.01 475.19 756.29 529.38 725.01 529.38 662.43 475.19 631.15 421 662.43"/><polygon points="1080 557.43 1080 620.01 1134.19 651.29 1188.38 620.01 1188.38 557.43 1134.19 526.15 1080 557.43"/><polygon points="1200 557.43 1200 620.01 1254.19 651.29 1308.38 620.01 1308.38 557.43 1254.19 526.15 1200 557.43"/><polygon points="840 557.43 840 620.01 894.19 651.29 948.38 620.01 948.38 557.43 894.19 526.15 840 557.43"/><polygon points="960 557.43 960 620.01 1014.19 651.29 1068.38 620.01 1068.38 557.43 1014.19 526.15 960 557.43"/><polygon points="1560 557.43 1560 620.01 1614.19 651.29 1668.38 620.01 1668.38 557.43 1614.19 526.15 1560 557.43"/><polygon points="1680 557.43 1680 620.01 1734.19 651.29 1788.38 620.01 1788.38 557.43 1734.19 526.15 1680 557.43"/><polygon points="1800 557.43 1800 620.01 1854.19 651.29 1908.38 620.01 1908.38 557.43 1854.19 526.15 1800 557.43"/><polygon points="1920 557.43 1920 620.01 1974.19 651.29 2028.38 620.01 2028.38 557.43 1974.19 526.15 1920 557.43"/><polygon points="1320 557.43 1320 620.01 1374.19 651.29 1428.38 620.01 1428.38 557.43 1374.19 526.15 1320 557.43"/><polygon points="1440 557.43 1440 620.01 1494.19 651.29 1548.38 620.01 1548.38 557.43 1494.19 526.15 1440 557.43"/><polygon points="240 557.43 240 620.01 294.19 651.29 348.38 620.01 348.38 557.43 294.19 526.15 240 557.43"/><polygon points="120 557.43 120 620.01 174.19 651.29 228.38 620.01 228.38 557.43 174.19 526.15 120 557.43"/><polygon points="600 557.43 600 620.01 654.19 651.29 708.38 620.01 708.38 557.43 654.19 526.15 600 557.43"/><polygon points="720 557.43 720 620.01 774.19 651.29 828.38 620.01 828.38 557.43 774.19 526.15 720 557.43"/><polygon points="360 557.43 360 620.01 414.19 651.29 468.38 620.01 468.38 557.43 414.19 526.15 360 557.43"/><polygon points="480 557.43 480 620.01 534.19 651.29 588.38 620.01 588.38 557.43 534.19 526.15 480 557.43"/><polygon points="1021 452.05 1021 514.62 1075.19 545.91 1129.38 514.62 1129.38 452.05 1075.19 420.77 1021 452.05"/><polygon points="1141 452.05 1141 514.62 1195.19 545.91 1249.38 514.62 1249.38 452.05 1195.19 420.77 1141 452.05"/><polygon points="781 452.05 781 514.62 835.19 545.91 889.38 514.62 889.38 452.05 835.19 420.77 781 452.05"/><polygon points="901 452.05 901 514.62 955.19 545.91 1009.38 514.62 1009.38 452.05 955.19 420.77 901 452.05"/><polygon points="1501 452.05 1501 514.62 1555.19 545.91 1609.38 514.62 1609.38 452.05 1555.19 420.77 1501 452.05"/><polygon points="1621 452.05 1621 514.62 1675.19 545.91 1729.38 514.62 1729.38 452.05 1675.19 420.77 1621 452.05"/><polygon points="1741 452.05 1741 514.62 1795.19 545.91 1849.38 514.62 1849.38 452.05 1795.19 420.77 1741 452.05"/><polygon points="1861 452.05 1861 514.62 1915.19 545.91 1969.38 514.62 1969.38 452.05 1915.19 420.77 1861 452.05"/><polygon points="1981 452.05 1981 514.62 2035.19 545.91 2089.38 514.62 2089.38 452.05 2035.19 420.77 1981 452.05"/><polygon points="1261 452.05 1261 514.62 1315.19 545.91 1369.38 514.62 1369.38 452.05 1315.19 420.77 1261 452.05"/><polygon points="1381 452.05 1381 514.62 1435.19 545.91 1489.38 514.62 1489.38 452.05 1435.19 420.77 1381 452.05"/><polygon points="181 452.05 181 514.62 235.19 545.91 289.38 514.62 289.38 452.05 235.19 420.77 181 452.05"/><polygon points="61 452.05 61 514.62 115.19 545.91 169.38 514.62 169.38 452.05 115.19 420.77 61 452.05"/><polygon points="541 452.05 541 514.62 595.19 545.91 649.38 514.62 649.38 452.05 595.19 420.77 541 452.05"/><polygon points="661 452.05 661 514.62 715.19 545.91 769.38 514.62 769.38 452.05 715.19 420.77 661 452.05"/><polygon points="301 452.05 301 514.62 355.19 545.91 409.38 514.62 409.38 452.05 355.19 420.77 301 452.05"/><polygon points="421 452.05 421 514.62 475.19 545.91 529.38 514.62 529.38 452.05 475.19 420.77 421 452.05"/><polygon points="1080 347.05 1080 409.62 1134.19 440.91 1188.38 409.62 1188.38 347.05 1134.19 315.77 1080 347.05"/><polygon points="1200 347.05 1200 409.62 1254.19 440.91 1308.38 409.62 1308.38 347.05 1254.19 315.77 1200 347.05"/><polygon points="840 347.05 840 409.62 894.19 440.91 948.38 409.62 948.38 347.05 894.19 315.77 840 347.05"/><polygon points="960 347.05 960 409.62 1014.19 440.91 1068.38 409.62 1068.38 347.05 1014.19 315.77 960 347.05"/><polygon points="1560 347.05 1560 409.62 1614.19 440.91 1668.38 409.62 1668.38 347.05 1614.19 315.77 1560 347.05"/><polygon points="1680 347.05 1680 409.62 1734.19 440.91 1788.38 409.62 1788.38 347.05 1734.19 315.77 1680 347.05"/><polygon points="1800 347.05 1800 409.62 1854.19 440.91 1908.38 409.62 1908.38 347.05 1854.19 315.77 1800 347.05"/><polygon points="1920 347.05 1920 409.62 1974.19 440.91 2028.38 409.62 2028.38 347.05 1974.19 315.77 1920 347.05"/><polygon points="1320 347.05 1320 409.62 1374.19 440.91 1428.38 409.62 1428.38 347.05 1374.19 315.77 1320 347.05"/><polygon points="1440 347.05 1440 409.62 1494.19 440.91 1548.38 409.62 1548.38 347.05 1494.19 315.77 1440 347.05"/><polygon points="240 347.05 240 409.62 294.19 440.91 348.38 409.62 348.38 347.05 294.19 315.77 240 347.05"/><polygon points="120 347.05 120 409.62 174.19 440.91 228.38 409.62 228.38 347.05 174.19 315.77 120 347.05"/><polygon points="600 347.05 600 409.62 654.19 440.91 708.38 409.62 708.38 347.05 654.19 315.77 600 347.05"/><polygon points="720 347.05 720 409.62 774.19 440.91 828.38 409.62 828.38 347.05 774.19 315.77 720 347.05"/><polygon points="360 347.05 360 409.62 414.19 440.91 468.38 409.62 468.38 347.05 414.19 315.77 360 347.05"/><polygon points="480 347.05 480 409.62 534.19 440.91 588.38 409.62 588.38 347.05 534.19 315.77 480 347.05"/><polygon points="1021 241.67 1021 304.24 1075.19 335.53 1129.38 304.24 1129.38 241.67 1075.19 210.38 1021 241.67"/><polygon points="1141 241.67 1141 304.24 1195.19 335.53 1249.38 304.24 1249.38 241.67 1195.19 210.38 1141 241.67"/><polygon points="781 241.67 781 304.24 835.19 335.53 889.38 304.24 889.38 241.67 835.19 210.38 781 241.67"/><polygon points="901 241.67 901 304.24 955.19 335.53 1009.38 304.24 1009.38 241.67 955.19 210.38 901 241.67"/><polygon points="1501 241.67 1501 304.24 1555.19 335.53 1609.38 304.24 1609.38 241.67 1555.19 210.38 1501 241.67"/><polygon points="1621 241.67 1621 304.24 1675.19 335.53 1729.38 304.24 1729.38 241.67 1675.19 210.38 1621 241.67"/><polygon points="1741 241.67 1741 304.24 1795.19 335.53 1849.38 304.24 1849.38 241.67 1795.19 210.38 1741 241.67"/><polygon points="1861 241.67 1861 304.24 1915.19 335.53 1969.38 304.24 1969.38 241.67 1915.19 210.38 1861 241.67"/><polygon points="1981 241.67 1981 304.24 2035.19 335.53 2089.38 304.24 2089.38 241.67 2035.19 210.38 1981 241.67"/><polygon points="1261 241.67 1261 304.24 1315.19 335.53 1369.38 304.24 1369.38 241.67 1315.19 210.38 1261 241.67"/><polygon points="1381 241.67 1381 304.24 1435.19 335.53 1489.38 304.24 1489.38 241.67 1435.19 210.38 1381 241.67"/><polygon points="181 241.67 181 304.24 235.19 335.53 289.38 304.24 289.38 241.67 235.19 210.38 181 241.67"/><polygon points="61 241.67 61 304.24 115.19 335.53 169.38 304.24 169.38 241.67 115.19 210.38 61 241.67"/><polygon points="541 241.67 541 304.24 595.19 335.53 649.38 304.24 649.38 241.67 595.19 210.38 541 241.67"/><polygon points="661 241.67 661 304.24 715.19 335.53 769.38 304.24 769.38 241.67 715.19 210.38 661 241.67"/><polygon points="301 241.67 301 304.24 355.19 335.53 409.38 304.24 409.38 241.67 355.19 210.38 301 241.67"/><polygon points="421 241.67 421 304.24 475.19 335.53 529.38 304.24 529.38 241.67 475.19 210.38 421 241.67"/><polygon points="1021 31.29 1021 93.86 1075.19 125.14 1129.38 93.86 1129.38 31.29 1075.19 0 1021 31.29"/><polygon points="1141 31.29 1141 93.86 1195.19 125.14 1249.38 93.86 1249.38 31.29 1195.19 0 1141 31.29"/><polygon points="781 31.29 781 93.86 835.19 125.14 889.38 93.86 889.38 31.29 835.19 0 781 31.29"/><polygon points="901 31.29 901 93.86 955.19 125.14 1009.38 93.86 1009.38 31.29 955.19 0 901 31.29"/><polygon points="1501 31.29 1501 93.86 1555.19 125.14 1609.38 93.86 1609.38 31.29 1555.19 0 1501 31.29"/><polygon points="1621 31.29 1621 93.86 1675.19 125.14 1729.38 93.86 1729.38 31.29 1675.19 0 1621 31.29"/><polygon points="1741 31.29 1741 93.86 1795.19 125.14 1849.38 93.86 1849.38 31.29 1795.19 0 1741 31.29"/><polygon points="1861 31.29 1861 93.86 1915.19 125.14 1969.38 93.86 1969.38 31.29 1915.19 0 1861 31.29"/><polygon points="1981 31.29 1981 93.86 2035.19 125.14 2089.38 93.86 2089.38 31.29 2035.19 0 1981 31.29"/><polygon points="1261 31.29 1261 93.86 1315.19 125.14 1369.38 93.86 1369.38 31.29 1315.19 0 1261 31.29"/><polygon points="1381 31.29 1381 93.86 1435.19 125.14 1489.38 93.86 1489.38 31.29 1435.19 0 1381 31.29"/><polygon points="181 31.29 181 93.86 235.19 125.14 289.38 93.86 289.38 31.29 235.19 0 181 31.29"/><polygon points="61 31.29 61 93.86 115.19 125.14 169.38 93.86 169.38 31.29 115.19 0 61 31.29"/><polygon points="541 31.29 541 93.86 595.19 125.14 649.38 93.86 649.38 31.29 595.19 0 541 31.29"/><polygon points="661 31.29 661 93.86 715.19 125.14 769.38 93.86 769.38 31.29 715.19 0 661 31.29"/><polygon points="301 31.29 301 93.86 355.19 125.14 409.38 93.86 409.38 31.29 355.19 0 301 31.29"/><polygon points="421 31.29 421 93.86 475.19 125.14 529.38 93.86 529.38 31.29 475.19 0 421 31.29"/><polygon points="1080 136.67 1080 199.24 1134.19 230.53 1188.38 199.24 1188.38 136.67 1134.19 105.38 1080 136.67"/><polygon points="1200 136.67 1200 199.24 1254.19 230.53 1308.38 199.24 1308.38 136.67 1254.19 105.38 1200 136.67"/><polygon points="840 136.67 840 199.24 894.19 230.53 948.38 199.24 948.38 136.67 894.19 105.38 840 136.67"/><polygon points="960 136.67 960 199.24 1014.19 230.53 1068.38 199.24 1068.38 136.67 1014.19 105.38 960 136.67"/><polygon points="1560 136.67 1560 199.24 1614.19 230.53 1668.38 199.24 1668.38 136.67 1614.19 105.38 1560 136.67"/><polygon points="1680 136.67 1680 199.24 1734.19 230.53 1788.38 199.24 1788.38 136.67 1734.19 105.38 1680 136.67"/><polygon points="1800 136.67 1800 199.24 1854.19 230.53 1908.38 199.24 1908.38 136.67 1854.19 105.38 1800 136.67"/><polygon points="1920 136.67 1920 199.24 1974.19 230.53 2028.38 199.24 2028.38 136.67 1974.19 105.38 1920 136.67"/><polygon points="1320 136.67 1320 199.24 1374.19 230.53 1428.38 199.24 1428.38 136.67 1374.19 105.38 1320 136.67"/><polygon points="1440 136.67 1440 199.24 1494.19 230.53 1548.38 199.24 1548.38 136.67 1494.19 105.38 1440 136.67"/><polygon points="240 136.67 240 199.24 294.19 230.53 348.38 199.24 348.38 136.67 294.19 105.38 240 136.67"/><polygon points="120 136.67 120 199.24 174.19 230.53 228.38 199.24 228.38 136.67 174.19 105.38 120 136.67"/><polygon points="600 136.67 600 199.24 654.19 230.53 708.38 199.24 708.38 136.67 654.19 105.38 600 136.67"/><polygon points="720 136.67 720 199.24 774.19 230.53 828.38 199.24 828.38 136.67 774.19 105.38 720 136.67"/><polygon points="360 136.67 360 199.24 414.19 230.53 468.38 199.24 468.38 136.67 414.19 105.38 360 136.67"/><polygon points="480 136.67 480 199.24 534.19 230.53 588.38 199.24 588.38 136.67 534.19 105.38 480 136.67"/><polygon points="1080 767.82 1080 830.39 1134.19 861.68 1188.38 830.39 1188.38 767.82 1134.19 736.53 1080 767.82"/><polygon points="1200 767.82 1200 830.39 1254.19 861.68 1308.38 830.39 1308.38 767.82 1254.19 736.53 1200 767.82"/><polygon points="840 767.82 840 830.39 894.19 861.68 948.38 830.39 948.38 767.82 894.19 736.53 840 767.82"/><polygon points="960 767.82 960 830.39 1014.19 861.68 1068.38 830.39 1068.38 767.82 1014.19 736.53 960 767.82"/><polygon points="1560 767.82 1560 830.39 1614.19 861.68 1668.38 830.39 1668.38 767.82 1614.19 736.53 1560 767.82"/><polygon points="1680 767.82 1680 830.39 1734.19 861.68 1788.38 830.39 1788.38 767.82 1734.19 736.53 1680 767.82"/><polygon points="1800 767.82 1800 830.39 1854.19 861.68 1908.38 830.39 1908.38 767.82 1854.19 736.53 1800 767.82"/><polygon points="1920 767.82 1920 830.39 1974.19 861.68 2028.38 830.39 2028.38 767.82 1974.19 736.53 1920 767.82"/><polygon points="1320 767.82 1320 830.39 1374.19 861.68 1428.38 830.39 1428.38 767.82 1374.19 736.53 1320 767.82"/><polygon points="1440 767.82 1440 830.39 1494.19 861.68 1548.38 830.39 1548.38 767.82 1494.19 736.53 1440 767.82"/><polygon points="240 767.82 240 830.39 294.19 861.68 348.38 830.39 348.38 767.82 294.19 736.53 240 767.82"/><polygon points="120 767.82 120 830.39 174.19 861.68 228.38 830.39 228.38 767.82 174.19 736.53 120 767.82"/><polygon points="600 767.82 600 830.39 654.19 861.68 708.38 830.39 708.38 767.82 654.19 736.53 600 767.82"/><polygon points="720 767.82 720 830.39 774.19 861.68 828.38 830.39 828.38 767.82 774.19 736.53 720 767.82"/><polygon points="360 767.82 360 830.39 414.19 861.68 468.38 830.39 468.38 767.82 414.19 736.53 360 767.82"/><polygon points="480 767.82 480 830.39 534.19 861.68 588.38 830.39 588.38 767.82 534.19 736.53 480 767.82"/><polygon points="1021 1083.2 1021 1145.77 1075.19 1177.06 1129.38 1145.77 1129.38 1083.2 1075.19 1051.91 1021 1083.2"/><polygon points="1141 1083.2 1141 1145.77 1195.19 1177.06 1249.38 1145.77 1249.38 1083.2 1195.19 1051.91 1141 1083.2"/><polygon points="781 1083.2 781 1145.77 835.19 1177.06 889.38 1145.77 889.38 1083.2 835.19 1051.91 781 1083.2"/><polygon points="901 1083.2 901 1145.77 955.19 1177.06 1009.38 1145.77 1009.38 1083.2 955.19 1051.91 901 1083.2"/><polygon points="1501 1083.2 1501 1145.77 1555.19 1177.06 1609.38 1145.77 1609.38 1083.2 1555.19 1051.91 1501 1083.2"/><polygon points="1621 1083.2 1621 1145.77 1675.19 1177.06 1729.38 1145.77 1729.38 1083.2 1675.19 1051.91 1621 1083.2"/><polygon points="1741 1083.2 1741 1145.77 1795.19 1177.06 1849.38 1145.77 1849.38 1083.2 1795.19 1051.91 1741 1083.2"/><polygon points="1861 1083.2 1861 1145.77 1915.19 1177.06 1969.38 1145.77 1969.38 1083.2 1915.19 1051.91 1861 1083.2"/><polygon points="1981 1083.2 1981 1145.77 2035.19 1177.06 2089.38 1145.77 2089.38 1083.2 2035.19 1051.91 1981 1083.2"/><polygon points="1261 1083.2 1261 1145.77 1315.19 1177.06 1369.38 1145.77 1369.38 1083.2 1315.19 1051.91 1261 1083.2"/><polygon points="1381 1083.2 1381 1145.77 1435.19 1177.06 1489.38 1145.77 1489.38 1083.2 1435.19 1051.91 1381 1083.2"/><polygon points="181 1083.2 181 1145.77 235.19 1177.06 289.38 1145.77 289.38 1083.2 235.19 1051.91 181 1083.2"/><polygon points="61 1083.2 61 1145.77 115.19 1177.06 169.38 1145.77 169.38 1083.2 115.19 1051.91 61 1083.2"/><polygon points="541 1083.2 541 1145.77 595.19 1177.06 649.38 1145.77 649.38 1083.2 595.19 1051.91 541 1083.2"/><polygon points="661 1083.2 661 1145.77 715.19 1177.06 769.38 1145.77 769.38 1083.2 715.19 1051.91 661 1083.2"/><polygon points="301 1083.2 301 1145.77 355.19 1177.06 409.38 1145.77 409.38 1083.2 355.19 1051.91 301 1083.2"/><polygon points="421 1083.2 421 1145.77 475.19 1177.06 529.38 1145.77 529.38 1083.2 475.19 1051.91 421 1083.2"/><polygon points="1021 1293.58 1021 1356.16 1075.19 1387.44 1129.38 1356.16 1129.38 1293.58 1075.19 1262.3 1021 1293.58"/><polygon points="1141 1293.58 1141 1356.16 1195.19 1387.44 1249.38 1356.16 1249.38 1293.58 1195.19 1262.3 1141 1293.58"/><polygon points="781 1293.58 781 1356.16 835.19 1387.44 889.38 1356.16 889.38 1293.58 835.19 1262.3 781 1293.58"/><polygon points="901 1293.58 901 1356.16 955.19 1387.44 1009.38 1356.16 1009.38 1293.58 955.19 1262.3 901 1293.58"/><polygon points="1501 1293.58 1501 1356.16 1555.19 1387.44 1609.38 1356.16 1609.38 1293.58 1555.19 1262.3 1501 1293.58"/><polygon points="1621 1293.58 1621 1356.16 1675.19 1387.44 1729.38 1356.16 1729.38 1293.58 1675.19 1262.3 1621 1293.58"/><polygon points="1741 1293.58 1741 1356.16 1795.19 1387.44 1849.38 1356.16 1849.38 1293.58 1795.19 1262.3 1741 1293.58"/><polygon points="1861 1293.58 1861 1356.16 1915.19 1387.44 1969.38 1356.16 1969.38 1293.58 1915.19 1262.3 1861 1293.58"/><polygon points="1981 1293.58 1981 1356.16 2035.19 1387.44 2089.38 1356.16 2089.38 1293.58 2035.19 1262.3 1981 1293.58"/><polygon points="1261 1293.58 1261 1356.16 1315.19 1387.44 1369.38 1356.16 1369.38 1293.58 1315.19 1262.3 1261 1293.58"/><polygon points="1381 1293.58 1381 1356.16 1435.19 1387.44 1489.38 1356.16 1489.38 1293.58 1435.19 1262.3 1381 1293.58"/><polygon points="181 1293.58 181 1356.16 235.19 1387.44 289.38 1356.16 289.38 1293.58 235.19 1262.3 181 1293.58"/><polygon points="61 1293.58 61 1356.16 115.19 1387.44 169.38 1356.16 169.38 1293.58 115.19 1262.3 61 1293.58"/><polygon points="541 1293.58 541 1356.16 595.19 1387.44 649.38 1356.16 649.38 1293.58 595.19 1262.3 541 1293.58"/><polygon points="661 1293.58 661 1356.16 715.19 1387.44 769.38 1356.16 769.38 1293.58 715.19 1262.3 661 1293.58"/><polygon points="301 1293.58 301 1356.16 355.19 1387.44 409.38 1356.16 409.38 1293.58 355.19 1262.3 301 1293.58"/><polygon points="421 1293.58 421 1356.16 475.19 1387.44 529.38 1356.16 529.38 1293.58 475.19 1262.3 421 1293.58"/><polygon points="1080 978.2 1080 1040.77 1134.19 1072.06 1188.38 1040.77 1188.38 978.2 1134.19 946.91 1080 978.2"/><polygon points="1200 978.2 1200 1040.77 1254.19 1072.06 1308.38 1040.77 1308.38 978.2 1254.19 946.91 1200 978.2"/><polygon points="840 978.2 840 1040.77 894.19 1072.06 948.38 1040.77 948.38 978.2 894.19 946.91 840 978.2"/><polygon points="960 978.2 960 1040.77 1014.19 1072.06 1068.38 1040.77 1068.38 978.2 1014.19 946.91 960 978.2"/><polygon points="1560 978.2 1560 1040.77 1614.19 1072.06 1668.38 1040.77 1668.38 978.2 1614.19 946.91 1560 978.2"/><polygon points="1680 978.2 1680 1040.77 1734.19 1072.06 1788.38 1040.77 1788.38 978.2 1734.19 946.91 1680 978.2"/><polygon points="1800 978.2 1800 1040.77 1854.19 1072.06 1908.38 1040.77 1908.38 978.2 1854.19 946.91 1800 978.2"/><polygon points="1920 978.2 1920 1040.77 1974.19 1072.06 2028.38 1040.77 2028.38 978.2 1974.19 946.91 1920 978.2"/><polygon points="1320 978.2 1320 1040.77 1374.19 1072.06 1428.38 1040.77 1428.38 978.2 1374.19 946.91 1320 978.2"/><polygon points="1440 978.2 1440 1040.77 1494.19 1072.06 1548.38 1040.77 1548.38 978.2 1494.19 946.91 1440 978.2"/><polygon points="240 978.2 240 1040.77 294.19 1072.06 348.38 1040.77 348.38 978.2 294.19 946.91 240 978.2"/><polygon points="120 978.2 120 1040.77 174.19 1072.06 228.38 1040.77 228.38 978.2 174.19 946.91 120 978.2"/><polygon points="600 978.2 600 1040.77 654.19 1072.06 708.38 1040.77 708.38 978.2 654.19 946.91 600 978.2"/><polygon points="720 978.2 720 1040.77 774.19 1072.06 828.38 1040.77 828.38 978.2 774.19 946.91 720 978.2"/><polygon points="360 978.2 360 1040.77 414.19 1072.06 468.38 1040.77 468.38 978.2 414.19 946.91 360 978.2"/><polygon points="480 978.2 480 1040.77 534.19 1072.06 588.38 1040.77 588.38 978.2 534.19 946.91 480 978.2"/><polygon points="1021 872.82 1021 935.39 1075.19 966.68 1129.38 935.39 1129.38 872.82 1075.19 841.53 1021 872.82"/><polygon points="1141 872.82 1141 935.39 1195.19 966.68 1249.38 935.39 1249.38 872.82 1195.19 841.53 1141 872.82"/><polygon points="781 872.82 781 935.39 835.19 966.68 889.38 935.39 889.38 872.82 835.19 841.53 781 872.82"/><polygon points="901 872.82 901 935.39 955.19 966.68 1009.38 935.39 1009.38 872.82 955.19 841.53 901 872.82"/><polygon points="1501 872.82 1501 935.39 1555.19 966.68 1609.38 935.39 1609.38 872.82 1555.19 841.53 1501 872.82"/><polygon points="1621 872.82 1621 935.39 1675.19 966.68 1729.38 935.39 1729.38 872.82 1675.19 841.53 1621 872.82"/><polygon points="1741 872.82 1741 935.39 1795.19 966.68 1849.38 935.39 1849.38 872.82 1795.19 841.53 1741 872.82"/><polygon points="1861 872.82 1861 935.39 1915.19 966.68 1969.38 935.39 1969.38 872.82 1915.19 841.53 1861 872.82"/><polygon points="1981 872.82 1981 935.39 2035.19 966.68 2089.38 935.39 2089.38 872.82 2035.19 841.53 1981 872.82"/><polygon points="1261 872.82 1261 935.39 1315.19 966.68 1369.38 935.39 1369.38 872.82 1315.19 841.53 1261 872.82"/><polygon points="1381 872.82 1381 935.39 1435.19 966.68 1489.38 935.39 1489.38 872.82 1435.19 841.53 1381 872.82"/><polygon points="181 872.82 181 935.39 235.19 966.68 289.38 935.39 289.38 872.82 235.19 841.53 181 872.82"/><polygon points="61 872.82 61 935.39 115.19 966.68 169.38 935.39 169.38 872.82 115.19 841.53 61 872.82"/><polygon points="541 872.82 541 935.39 595.19 966.68 649.38 935.39 649.38 872.82 595.19 841.53 541 872.82"/><polygon points="661 872.82 661 935.39 715.19 966.68 769.38 935.39 769.38 872.82 715.19 841.53 661 872.82"/><polygon points="301 872.82 301 935.39 355.19 966.68 409.38 935.39 409.38 872.82 355.19 841.53 301 872.82"/><polygon points="421 872.82 421 935.39 475.19 966.68 529.38 935.39 529.38 872.82 475.19 841.53 421 872.82"/><polygon points="1080 1188.58 1080 1251.16 1134.19 1282.44 1188.38 1251.16 1188.38 1188.58 1134.19 1157.3 1080 1188.58"/><polygon points="1200 1188.58 1200 1251.16 1254.19 1282.44 1308.38 1251.16 1308.38 1188.58 1254.19 1157.3 1200 1188.58"/><polygon points="840 1188.58 840 1251.16 894.19 1282.44 948.38 1251.16 948.38 1188.58 894.19 1157.3 840 1188.58"/><polygon points="960 1188.58 960 1251.16 1014.19 1282.44 1068.38 1251.16 1068.38 1188.58 1014.19 1157.3 960 1188.58"/><polygon points="1560 1188.58 1560 1251.16 1614.19 1282.44 1668.38 1251.16 1668.38 1188.58 1614.19 1157.3 1560 1188.58"/><polygon points="1680 1188.58 1680 1251.16 1734.19 1282.44 1788.38 1251.16 1788.38 1188.58 1734.19 1157.3 1680 1188.58"/><polygon points="1800 1188.58 1800 1251.16 1854.19 1282.44 1908.38 1251.16 1908.38 1188.58 1854.19 1157.3 1800 1188.58"/><polygon points="1920 1188.58 1920 1251.16 1974.19 1282.44 2028.38 1251.16 2028.38 1188.58 1974.19 1157.3 1920 1188.58"/><polygon points="1320 1188.58 1320 1251.16 1374.19 1282.44 1428.38 1251.16 1428.38 1188.58 1374.19 1157.3 1320 1188.58"/><polygon points="1440 1188.58 1440 1251.16 1494.19 1282.44 1548.38 1251.16 1548.38 1188.58 1494.19 1157.3 1440 1188.58"/><polygon points="240 1188.58 240 1251.16 294.19 1282.44 348.38 1251.16 348.38 1188.58 294.19 1157.3 240 1188.58"/><polygon points="120 1188.58 120 1251.16 174.19 1282.44 228.38 1251.16 228.38 1188.58 174.19 1157.3 120 1188.58"/><polygon points="0 557.43 0 620.01 54.19 651.29 108.38 620.01 108.38 557.43 54.19 526.15 0 557.43"/><polygon points="0 347.05 0 409.62 54.19 440.91 108.38 409.62 108.38 347.05 54.19 315.77 0 347.05"/><polygon points="0 136.67 0 199.24 54.19 230.53 108.38 199.24 108.38 136.67 54.19 105.38 0 136.67"/><polygon points="0 767.82 0 830.39 54.19 861.68 108.38 830.39 108.38 767.82 54.19 736.53 0 767.82"/><polygon points="0 978.2 0 1040.77 54.19 1072.06 108.38 1040.77 108.38 978.2 54.19 946.91 0 978.2"/><polygon points="0 1188.58 0 1251.16 54.19 1282.44 108.38 1251.16 108.38 1188.58 54.19 1157.3 0 1188.58"/><polygon points="2040 557.43 2040 620.01 2094.19 651.29 2148.38 620.01 2148.38 557.43 2094.19 526.15 2040 557.43"/><polygon points="2040 347.05 2040 409.62 2094.19 440.91 2148.38 409.62 2148.38 347.05 2094.19 315.77 2040 347.05"/><polygon points="2040 136.67 2040 199.24 2094.19 230.53 2148.38 199.24 2148.38 136.67 2094.19 105.38 2040 136.67"/><polygon points="2040 767.82 2040 830.39 2094.19 861.68 2148.38 830.39 2148.38 767.82 2094.19 736.53 2040 767.82"/><polygon points="2040 978.2 2040 1040.77 2094.19 1072.06 2148.38 1040.77 2148.38 978.2 2094.19 946.91 2040 978.2"/><polygon points="2040 1188.58 2040 1251.16 2094.19 1282.44 2148.38 1251.16 2148.38 1188.58 2094.19 1157.3 2040 1188.58"/><polygon points="600 1188.58 600 1251.16 654.19 1282.44 708.38 1251.16 708.38 1188.58 654.19 1157.3 600 1188.58"/><polygon points="720 1188.58 720 1251.16 774.19 1282.44 828.38 1251.16 828.38 1188.58 774.19 1157.3 720 1188.58"/><polygon points="360 1188.58 360 1251.16 414.19 1282.44 468.38 1251.16 468.38 1188.58 414.19 1157.3 360 1188.58"/><polygon points="480 1188.58 480 1251.16 534.19 1282.44 588.38 1251.16 588.38 1188.58 534.19 1157.3 480 1188.58"/></g></g></svg>