<svg
	xmlns="http://www.w3.org/2000/svg" viewBox="0 0 352.67 410.02">
	<defs>
		<style>.cls-1{fill:#fff;}.cls-2{fill:red;}</style>
	</defs>
	<g id="Layer_2" data-name="Layer 2">
		<g id="Layer_1-2" data-name="Layer 1">
			<path class="cls-1" d="M196.53,122.65a37.67,37.67,0,0,1,32.63,18.61l55.93,96.87a37.66,37.66,0,0,1-13.68,51l-96.87,55.93a36.33,36.33,0,0,1-18.4,4.93,37.67,37.67,0,0,1-32.63-18.61L67.58,234.54a37.64,37.64,0,0,1,13.68-51l96.87-55.93a36.33,36.33,0,0,1,18.4-4.93h0m0-60a96.53,96.53,0,0,0-48.4,13L51.25,131.55c-46.37,26.77-62.4,86.62-35.63,133l55.93,96.87A97.57,97.57,0,0,0,156.14,410a96.53,96.53,0,0,0,48.4-13l96.87-55.93c46.38-26.78,62.41-86.62,35.64-133l-55.93-96.88a97.58,97.58,0,0,0-84.59-48.6Z"/>
			<path class="cls-2" d="M189.85,101.18A37.55,37.55,0,0,1,220.67,117l64.16,91.63a37.64,37.64,0,0,1-9.18,52L184,324.83a36.86,36.86,0,0,1-21.21,6.66A37.54,37.54,0,0,1,132,315.65L67.84,224A37.65,37.65,0,0,1,77,172l91.63-64.16a36.86,36.86,0,0,1,21.21-6.66h0m0-60a96.68,96.68,0,0,0-55.62,17.51L42.6,122.85C-1.26,153.56-12,214.58,18.69,258.44l64.16,91.63A97.6,97.6,0,0,0,218.44,374l91.63-64.16c43.86-30.71,54.62-91.73,23.91-135.59L269.82,82.6a97.44,97.44,0,0,0-80-41.42Z"/>
			<path class="cls-1" d="M183.11,80.3a37.33,37.33,0,0,1,28.73,13.23l71.9,85.68a37.65,37.65,0,0,1-4.6,52.63l-85.69,71.91a36.75,36.75,0,0,1-23.89,8.62,37.35,37.35,0,0,1-28.74-13.23l-71.9-85.69a37.64,37.64,0,0,1,4.61-52.63l85.68-71.9A36.77,36.77,0,0,1,183.1,80.3h0m0-60A96.85,96.85,0,0,0,120.65,43L35,114.86C-6.06,149.28-11.46,211,23,252l71.9,85.69a97.65,97.65,0,0,0,137.16,12l85.69-71.9c41-34.42,46.42-96.14,12-137.16L257.81,55A97.22,97.22,0,0,0,183.1,20.3Z"/>
			<path class="cls-2" d="M176.34,60a37,37,0,0,1,26.41,10.82l79.09,79.1a37.63,37.63,0,0,1,0,52.83l-79.09,79.09a37.63,37.63,0,0,1-52.83,0l-79.1-79.09a37.65,37.65,0,0,1,0-52.83l79.1-79.1A37.05,37.05,0,0,1,176.34,60h0m0-60a97.07,97.07,0,0,0-68.84,28.4L28.4,107.49c-37.87,37.86-37.87,99.82,0,137.68l79.09,79.1a97.63,97.63,0,0,0,137.68,0l79.1-79.09c37.86-37.87,37.86-99.82,0-137.69L245.18,28.4A97.05,97.05,0,0,0,176.33,0Z"/>
		</g>
	</g>
</svg>